<svg width="4264" height="1189" viewBox="0 0 4264 1189" fill="none" xmlns="http://www.w3.org/2000/svg">
<path d="M505.17 93.9744C489.78 99.5745 477.736 110.108 473.454 121.575L470.778 128.642L463.685 129.709C397.71 139.309 353.414 152.776 300.153 179.443C287.841 185.577 277.403 190.643 277.001 190.643C275.529 190.643 277.001 186.377 283.291 171.71C287.038 163.043 289.715 155.443 289.313 154.776C288.912 154.109 286.369 153.176 283.693 152.776C281.15 152.243 278.206 151.576 277.135 151.176C275.262 150.376 271.381 159.176 261.612 185.31C258.534 193.71 255.322 201.444 254.653 202.244C253.181 204.244 216.781 204.644 213.703 202.777C211.428 201.31 212.632 196.244 220.929 168.91C227.353 148.242 227.487 149.042 215.978 147.442L209.822 146.509L208.216 151.442C207.279 154.109 203.934 166.51 200.856 178.91C197.778 191.31 194.7 201.977 194.031 202.644C193.362 203.31 186.804 204.244 179.444 204.777C172.084 205.177 165.393 206.244 164.59 206.777C162.85 208.111 159.237 232.911 160.575 234.245C160.977 234.645 166.865 234.378 173.69 233.578C181.318 232.645 186.537 232.511 187.34 233.311C188.143 234.111 187.741 239.445 186.403 247.445L184.262 260.512L175.965 268.779C170.612 274.112 166.062 277.446 163.519 277.979C154.954 279.712 154.687 279.979 154.687 285.046C154.687 290.779 153.482 292.646 139.699 309.713C100.89 357.314 68.9061 419.449 51.6428 480.118C46.0223 499.985 39.4649 531.586 36.9223 551.186C35.584 561.853 34.9149 563.72 30.9002 568.253C19.5252 580.787 15.7782 594.254 14.1723 628.521C12.8341 656.389 11.7635 661.856 4.13555 675.456C-4.42914 691.056 0.656145 688.39 16.1797 669.056C23.9414 659.322 31.3017 651.189 32.2385 650.922C34.2458 650.389 34.3796 650.789 37.5914 676.389C41.8737 711.723 51.7767 750.924 65.159 785.992C74.3928 810.126 93.931 849.46 107.715 871.061C113.737 880.528 118.555 888.928 118.555 889.728C118.555 890.661 103.7 901.462 85.634 913.862C67.5678 926.129 52.9811 936.529 53.2487 936.796C53.5164 936.929 62.4825 940.129 73.0546 943.729C83.7604 947.329 98.481 952.396 105.841 955.063C124.978 961.73 137.424 962.13 143.981 956.263C149.468 951.463 150.538 944.263 147.327 934.529C144.382 925.862 134.747 915.595 123.372 909.329C119.224 906.928 116.012 904.395 116.28 903.462C116.547 902.662 118.555 900.928 120.83 899.595L124.978 897.195L134.078 908.929C154.954 935.863 179.176 961.197 205.941 983.864C213.034 989.864 218.922 995.464 218.922 996.264C218.922 996.931 217.718 999.064 216.246 1000.93C213.034 1004.93 212.766 1012 215.576 1017.33C221.866 1029.33 246.222 1036.53 264.957 1031.86C270.712 1030.4 270.979 1030.53 287.975 1039.87C340.701 1068.53 398.914 1087.07 462.481 1095.6C476.532 1097.47 489.513 1098 521.363 1098C565.926 1098 580.914 1096.67 617.716 1089.33C749.398 1063.07 863.549 984.264 936.215 869.194C948.928 849.06 968.734 809.193 977.567 785.992C1025.07 661.056 1019.32 522.385 961.642 403.182C942.639 363.715 921.628 331.314 894.462 299.18C889.511 293.179 885.362 287.179 885.362 285.713C885.362 281.846 893.927 264.912 898.745 259.445C901.153 256.779 905.971 252.912 909.317 250.912C914.937 247.712 916.677 247.312 928.855 247.312C940.631 247.312 943.174 247.712 950.133 251.045C968.734 259.712 983.589 274.512 987.871 288.913C990.146 296.513 990.146 297.58 987.871 300.646C986.131 303.18 985.73 303.046 979.708 297.446C971.545 289.979 964.05 286.646 954.817 286.646C924.037 286.513 926.714 334.247 958.296 349.181C967.396 353.581 980.109 353.714 988.005 349.581C999.112 343.714 1004.6 332.38 1004.6 315.313C1004.6 289.846 990.146 265.845 965.255 249.578C950.668 240.111 939.828 236.645 924.84 236.645C914.536 236.778 911.859 237.311 906.105 240.245C899.414 243.712 890.448 252.112 886.299 258.912C885.095 260.912 882.82 265.845 881.214 269.979C879.742 273.979 877.734 277.312 876.798 277.312C875.995 277.312 872.248 274.246 868.634 270.512C858.33 259.979 832.368 237.445 817.246 225.844C809.752 220.111 803.864 214.777 804.132 213.977C804.533 213.177 813.901 199.71 825.008 184.11C843.342 158.509 846.955 151.976 842.673 151.976C842.004 151.976 832.904 164.376 822.465 179.577C812.027 194.91 802.392 208.377 801.054 209.711C798.912 212.111 798.377 211.977 789.277 206.111C784.058 202.644 779.374 199.31 778.973 198.51C778.437 197.844 786.601 183.577 796.905 166.776C807.343 150.109 815.774 135.575 815.774 134.775C815.774 133.842 814.704 133.309 813.499 133.575C812.161 133.842 803.864 146.376 793.559 163.309C783.79 179.443 774.958 193.177 774.021 193.844C772.549 194.644 766.929 192.244 754.751 185.71C690.114 150.909 621.596 131.442 548.395 127.175C539.429 126.642 531.667 125.709 531.266 125.175C530.864 124.508 532.069 121.442 533.942 118.242C540.098 107.708 537.957 97.7078 528.589 93.841C523.103 91.5743 511.594 91.5743 505.17 93.9744ZM550.804 135.309C614.236 137.842 689.579 159.043 748.729 191.044C772.014 203.577 770.809 201.044 760.773 217.711C755.286 227.044 751.405 231.978 749.933 231.978C748.729 231.978 744.446 230.111 740.699 227.844C711.258 210.511 667.498 193.044 631.098 183.977C593.226 174.643 571.413 171.843 527.519 170.776L491.386 169.976L487.104 159.309C480.948 144.509 480.948 144.509 490.851 143.442C495.401 142.909 502.092 141.176 505.839 139.709C520.158 134.109 522.166 133.575 527.385 133.975C530.329 134.375 540.901 134.909 550.804 135.309ZM480.948 152.909C486.167 164.91 487.372 169.043 486.167 170.11C484.026 171.976 446.556 176.643 445.083 175.176C444.548 174.51 443.745 172.776 443.344 171.31C442.942 169.31 442.675 169.576 442.541 172.376C442.407 176.91 441.738 177.176 417.65 182.643C365.459 194.777 313.267 217.978 267.098 249.845C260.14 254.645 253.984 258.112 253.315 257.445C252.646 256.779 254.118 250.245 256.393 242.778C261.21 227.311 260.943 227.578 277.001 228.244L287.306 228.644L291.856 217.978C294.265 212.111 296.138 207.044 295.87 206.911C295.603 206.644 290.919 205.977 285.566 205.577C278.741 204.911 275.797 204.111 275.797 202.777C275.797 200.377 302.562 185.71 325.981 175.443C362.381 159.443 407.345 145.976 442.407 140.642C450.169 139.442 457.395 138.242 458.466 138.109C459.536 137.842 463.551 137.575 467.298 137.442L474.257 137.309L480.948 152.909ZM546.12 177.31C608.749 181.31 663.483 195.977 718.485 223.444C738.692 233.578 746.186 238.111 746.186 240.245C746.186 243.045 732.268 265.312 730.529 265.312C729.458 265.312 723.302 262.245 716.611 258.512C690.783 243.978 652.777 229.044 621.73 221.311C590.549 213.444 562.179 209.711 528.322 208.777C516.947 208.511 507.311 207.711 506.642 207.177C505.17 205.577 495.936 181.577 495.936 179.31C495.936 176.243 516.545 175.443 546.12 177.31ZM490.985 179.177C493.661 181.843 502.895 205.311 502.092 207.311C501.691 208.377 494.33 209.444 481.216 210.644L461.008 212.377L455.656 207.177C449.366 201.044 444.682 192.11 445.351 187.043C445.619 184.377 446.689 183.177 449.767 182.51C452.845 181.71 478.272 178.243 487.505 177.443C488.308 177.31 489.914 178.11 490.985 179.177ZM440.533 185.043C441.336 185.577 442.407 188.643 442.942 191.977C443.478 195.31 445.619 201.177 447.76 204.911C450.035 208.777 451.775 212.511 451.775 213.177C451.775 213.844 448.295 215.177 444.147 215.977C403.063 224.111 359.035 240.111 324.509 259.312C297.476 274.512 277.135 289.179 243.546 317.847C241.003 319.98 238.594 321.314 238.059 320.78C236.854 319.58 242.609 290.513 244.482 288.646C245.151 287.846 250.638 286.646 256.66 285.979L267.5 284.646L269.775 277.979C274.459 264.245 274.726 265.445 267.5 265.045C264.02 264.779 261.076 264.112 261.076 263.312C261.076 261.579 279.009 248.912 295.603 239.045C333.742 216.244 378.975 197.977 421.664 187.977C440.667 183.443 438.66 183.843 440.533 185.043ZM784.593 212.111C789.277 215.177 793.024 218.644 793.024 219.844C793.024 222.378 777.099 246.245 774.69 247.178C772.683 247.978 755.554 237.178 755.554 234.911C755.554 231.978 772.282 206.644 774.155 206.644C775.226 206.644 779.909 209.177 784.593 212.111ZM567.398 216.778C600.051 220.378 634.176 228.644 665.491 240.645C681.817 246.912 718.886 264.779 724.64 269.179L727.986 271.712L721.964 282.113C718.618 287.846 715.005 293.046 713.935 293.713C712.463 294.646 708.448 293.046 700.017 288.379C651.573 261.579 595.902 246.112 537.422 243.045C527.385 242.645 519.489 241.578 518.954 240.778C517.214 238.511 510.657 219.578 510.657 217.044C510.657 215.844 511.46 214.511 512.397 214.111C514.805 213.044 547.994 214.644 567.398 216.778ZM505.973 217.978C505.973 220.244 504.903 220.644 497.944 221.044C488.844 221.444 479.744 219.978 479.744 217.978C479.744 216.111 487.104 214.911 497.275 215.177C505.036 215.311 505.973 215.577 505.973 217.978ZM483.625 226.378C502.092 232.911 513.467 239.045 511.058 241.311C510.523 241.978 501.825 243.178 491.922 243.978C383.926 253.312 288.778 305.446 224.409 390.649C218.119 399.049 210.09 410.382 206.878 415.716C201.257 424.783 200.187 425.716 191.354 429.983C175.965 437.316 161.646 455.05 155.49 474.117C150.271 490.251 150.538 511.985 156.159 522.919C158.166 526.785 158.835 529.852 158.3 533.186C157.765 535.852 156.293 544.919 154.821 553.453C144.784 612.388 150.806 679.456 171.281 736.657C174.894 746.524 175.697 750.258 174.627 752.125C172.619 756.125 170.077 755.058 167.4 749.458C163.921 741.591 155.222 733.457 145.721 729.057C137.691 725.19 137.156 724.79 135.282 718.257C127.521 691.19 122.703 660.522 121.632 630.388L120.83 607.987L128.993 608.387C135.952 608.654 137.557 608.254 140.502 605.454C149.468 597.054 144.115 579.053 129.528 569.053L123.64 565.053L124.577 558.12C127.788 534.386 136.754 498.918 145.988 473.717C152.144 457.05 169.407 421.716 179.444 405.316C231.1 320.38 315.542 256.379 411.494 229.311C432.236 223.444 455.656 218.644 460.473 219.178C462.748 219.444 473.186 222.778 483.625 226.378ZM810.287 230.245C833.037 247.178 871.043 281.579 872.649 286.779C873.987 290.646 864.084 314.647 861.274 314.647C860.07 314.647 856.055 313.713 852.442 312.513C847.223 310.78 842.806 307.313 830.495 295.313C814.704 279.979 795.433 263.579 784.326 255.979C780.445 253.312 778.437 251.045 778.839 249.845C780.177 246.245 797.574 222.644 798.912 222.644C799.582 222.644 804.667 226.111 810.287 230.245ZM245.687 230.645C245.687 232.645 236.453 265.579 235.65 266.379C234.312 267.712 199.518 271.712 198.313 270.646C197.778 269.979 197.644 266.912 198.179 263.712C199.25 257.179 202.06 254.245 220.929 239.045C232.037 230.111 233.509 229.311 239.397 229.311C242.876 229.311 245.687 229.845 245.687 230.645ZM216.246 231.845C216.246 233.445 206.343 241.311 204.335 241.311C202.462 241.311 202.462 238.511 204.201 234.111C205.272 231.178 206.343 230.645 210.893 230.645C213.837 230.645 216.246 231.178 216.246 231.845ZM761.174 247.578C765.457 250.378 768.936 253.578 768.936 254.645C768.936 257.979 754.215 278.646 751.673 278.646C748.862 278.646 735.48 269.712 735.48 267.712C735.48 264.245 749.532 242.645 751.807 242.645C752.61 242.645 756.892 244.912 761.174 247.578ZM518.017 248.778C520.025 250.778 520.292 250.778 522.567 248.778C524.708 246.912 527.117 246.778 544.247 247.978C561.644 249.178 586.535 252.378 592.691 254.112C594.966 254.778 595.902 258.645 593.761 258.645C590.416 258.645 584.527 265.712 583.055 271.312C581.851 276.112 580.914 277.312 578.639 277.312C572.617 277.312 546.12 274.379 544.113 273.446C541.302 272.246 492.323 273.979 478.539 275.979C443.344 280.646 411.494 289.713 379.376 304.113C372.953 307.046 365.726 309.313 363.184 309.313C356.225 309.313 345.519 315.447 338.426 323.314C334.813 327.18 327.185 333.847 321.297 337.981C290.384 360.114 262.147 389.049 239.665 421.983C234.579 429.316 230.029 435.85 229.494 436.516C228.959 437.05 226.148 435.85 223.338 433.583C220.528 431.45 215.978 428.916 213.301 427.983C210.491 427.183 207.949 425.983 207.681 425.449C206.744 423.983 215.175 410.516 227.487 394.115C277.001 327.98 347.928 280.246 427.954 259.312C454.451 252.378 476.131 249.178 512.932 246.778C514.538 246.778 516.813 247.578 518.017 248.778ZM781.114 261.579C797.708 273.446 831.833 303.313 831.833 305.98C831.833 307.046 828.621 307.98 823.536 308.513C818.584 308.913 812.027 310.78 807.745 313.047C803.73 315.047 799.983 316.78 799.582 317.047C799.18 317.18 793.426 312.78 786.868 307.18C780.311 301.58 770.943 293.979 765.992 290.379C760.907 286.646 756.892 282.779 756.892 281.712C756.892 279.446 772.549 257.312 774.155 257.312C774.69 257.312 777.902 259.179 781.114 261.579ZM654.517 271.979C665.892 276.246 703.496 294.646 708.046 298.113C710.723 300.113 710.589 300.113 706.708 307.313C704.567 311.447 701.489 316.247 700.017 318.113L697.34 321.447L679.274 312.113C659.87 302.113 654.116 299.713 632.436 291.979C624.808 289.179 618.251 286.379 617.983 285.579C617.716 284.779 620.794 283.313 624.808 282.113C632.57 279.846 639.127 274.512 639.127 270.512C639.127 267.045 642.071 267.312 654.517 271.979ZM740.833 278.912C744.58 281.446 747.524 284.379 747.524 285.713C747.524 289.713 735.212 306.513 732.135 306.513C728.521 306.646 716.343 297.58 717.146 295.446C719.154 290.246 730.395 274.646 732.135 274.646C733.205 274.646 737.22 276.646 740.833 278.912ZM535.414 278.646C535.95 279.579 537.154 279.579 538.76 278.646C540.633 277.712 546.522 277.846 558.566 279.179C577.167 281.446 580.245 282.113 580.245 284.513C580.379 289.979 574.089 321.714 572.885 322.114C571.948 322.514 566.194 319.713 560.038 315.847C540.366 303.713 538.225 301.446 536.083 291.579L534.879 285.979L535.414 291.979C536.752 303.58 537.689 307.98 539.027 307.18C540.767 305.98 564.855 328.647 567.398 333.847C569.941 339.314 570.208 345.314 567.799 345.314C563.919 345.314 546.655 331.847 541.972 325.18C539.964 322.247 537.823 317.313 537.288 314.247L536.485 308.647L536.217 314.38C535.95 323.447 539.161 328.78 552.811 341.714C561.108 349.581 565.658 354.914 566.194 357.581C566.729 359.714 567.398 361.181 567.666 360.915C568.067 360.648 571.279 344.514 574.892 325.18C583.457 279.979 582.252 283.979 586.936 283.979C593.092 283.979 619.991 291.313 638.458 298.113C660.138 306.113 693.192 322.647 693.727 325.847C693.995 327.047 688.91 337.047 682.486 347.714C668.702 370.915 669.639 369.315 670.308 369.315C670.71 369.315 676.732 359.981 683.958 348.648C691.051 337.314 697.474 327.98 698.277 327.98C700.418 327.98 711.258 335.047 711.927 336.914C712.329 337.714 706.574 347.181 699.08 357.981C691.72 368.648 685.965 377.715 686.233 377.982C686.367 378.248 692.523 369.981 699.883 359.714C707.11 349.448 713.935 340.781 714.871 340.381C718.752 338.914 744.982 359.981 764.52 380.515C782.72 399.449 806.273 430.25 804.533 433.05C804.132 433.716 799.314 433.45 793.426 432.383C768.534 427.983 748.193 435.983 739.629 453.584C734.142 464.784 730.662 479.051 732.268 483.718C734.008 488.918 741.235 491.985 751.137 491.985C767.464 491.985 780.311 484.251 792.489 467.184C795.834 462.517 799.18 458.65 799.849 458.65C800.518 458.65 806.54 460.784 813.231 463.584L825.543 468.384L830.227 478.518C841.067 501.985 851.505 539.719 856.189 572.653C858.731 590.787 858.33 638.522 855.386 657.322C851.906 680.123 848.159 696.123 845.751 698.923C844.412 700.39 841.468 701.323 838.658 701.457C834.242 701.457 834.108 701.59 837.052 702.79C839.862 703.857 839.996 704.257 838.39 706.523C837.32 707.99 832.77 714.524 828.22 721.057C817.246 736.791 806.005 746.658 799.046 746.658C795.701 746.658 796.637 743.858 803.73 732.524C812.161 718.657 820.993 709.057 828.086 705.457C831.298 703.857 832.77 702.657 831.431 702.657C825.008 702.657 813.365 712.123 802.124 726.524C791.552 740.124 787.404 744.124 781.649 746.791L776.296 749.324L784.995 749.191C789.812 749.191 801.187 748.391 810.421 747.458C819.655 746.391 827.684 746.124 828.354 746.791C829.959 748.258 824.339 761.058 814.168 778.525C804.801 794.926 793.158 811.993 791.552 811.993C790.883 811.993 789.545 810.259 788.474 808.126C783.79 799.326 772.817 793.726 762.646 795.192C740.03 798.259 704.299 833.993 701.221 856.527C700.017 865.194 704.433 873.861 712.998 879.061C717.949 882.128 719.02 883.461 717.949 884.795C715.674 887.595 693.058 901.728 679.274 909.062C663.216 917.729 642.339 926.396 623.202 932.529C608.08 937.463 602.46 938.263 600.988 936.129C600.586 935.329 597.241 936.263 593.226 937.996C589.479 939.863 585.33 941.329 583.992 941.329C582.52 941.329 580.245 937.596 576.766 929.329C574.089 922.662 571.413 917.329 570.744 917.329C570.208 917.329 568.201 917.862 566.327 918.662L562.848 919.862L567.13 931.329C569.539 938.129 570.744 943.329 570.074 943.996C568.067 945.996 542.507 948.263 540.901 946.663C540.098 945.863 538.492 941.729 537.422 937.596C535.414 930.129 535.28 929.996 530.73 929.996C527.786 929.996 526.18 930.529 526.314 931.596C526.582 932.529 527.117 936.663 527.519 940.796L528.455 948.396L505.839 947.463C482.822 946.663 469.707 945.063 467.566 942.929C466.897 942.263 469.038 938.396 472.651 933.862C476.933 928.529 477.603 927.196 474.926 929.862L470.778 933.596L465.558 929.596C458.198 923.596 450.035 921.195 437.723 920.929C426.081 920.795 422.066 922.129 417.382 927.729L414.438 931.196L402.661 926.796C373.354 915.995 335.884 894.661 310.591 874.661C287.306 856.127 262.682 829.86 245.018 804.659C234.178 789.059 221.598 767.325 221.598 763.991C221.598 762.525 224.275 758.125 227.487 754.125C235.784 743.991 236.854 737.991 235.784 711.457C234.981 691.856 235.115 689.59 237.523 684.923C238.862 682.256 239.531 679.989 238.996 679.989C238.326 679.989 230.431 687.99 221.331 697.59C212.231 707.323 203.934 715.457 202.729 715.724C200.99 715.99 199.651 712.924 196.44 701.057C189.079 674.656 184.128 639.988 184.128 615.054C184.128 603.987 185.868 601.721 189.882 607.454C195.369 615.321 207.815 626.255 215.443 629.988C223.74 633.988 234.178 635.588 242.341 634.121C251.307 632.388 260.541 621.454 262.548 610.388L263.351 605.987L260.541 610.388C249.568 627.321 216.647 623.055 195.235 601.721C190.685 597.187 186.537 591.854 186.001 589.987C185.065 586.12 187.072 567.72 190.284 550.119C192.559 538.252 192.559 538.119 200.722 530.119C219.591 511.585 231.368 482.518 231.501 454.65L231.635 440.65L239.129 429.316C250.371 412.382 264.422 394.782 278.741 379.982C296.941 361.048 327.319 336.381 330.263 338.114C330.798 338.514 331.334 341.181 331.334 344.247C331.334 348.381 331.735 349.314 333.073 348.381C333.876 347.581 337.891 346.647 341.906 346.247C358.232 344.381 378.573 325.714 376.164 314.78C375.228 310.113 375.897 309.58 390.35 303.446C417.784 291.979 451.641 283.046 482.286 279.312C499.817 277.179 534.21 276.779 535.414 278.646ZM763.182 294.913C778.973 306.913 794.362 320.513 794.362 322.647C794.229 323.714 793.158 327.98 791.686 331.98C790.214 335.981 789.143 342.514 789.009 346.247C789.009 350.114 788.474 353.314 787.939 353.314C787.27 353.314 780.445 347.581 772.817 340.647C765.189 333.58 753.948 324.114 747.926 319.58C741.904 315.047 736.952 310.513 736.818 309.713C736.818 306.646 750.736 287.979 753.011 287.979C753.546 287.979 758.096 291.046 763.182 294.913ZM230.029 291.579C230.431 292.246 229.226 300.78 227.353 310.647C225.613 320.513 224.543 330.247 224.81 332.247C225.479 335.314 224.275 337.447 217.985 344.247C179.979 386.649 148.263 443.583 132.071 498.918C127.387 515.318 121.365 542.786 119.224 557.586C118.555 563.186 118.019 563.986 113.871 565.32C111.462 566.12 104.369 571.32 98.2134 576.653C86.8384 586.92 85.2325 587.854 84.9649 584.92C84.2957 574.787 88.8457 540.519 93.931 517.985C106.778 460.917 133.543 401.716 166.463 357.048C173.288 347.981 174.76 346.781 179.444 345.981C188.276 344.381 189.481 343.314 189.481 336.647C189.481 333.447 190.016 329.447 190.685 327.714C192.425 323.314 224.676 290.646 227.353 290.646C228.557 290.646 229.762 291.046 230.029 291.579ZM210.893 294.779C210.893 296.913 196.038 311.98 193.763 311.98C192.291 311.98 191.89 310.513 192.425 304.646C192.826 300.646 193.362 296.913 193.897 296.513C196.306 293.979 210.893 292.513 210.893 294.779ZM888.708 304.246C898.343 314.913 916.142 338.914 926.58 355.314C966.325 418.116 990.012 484.784 999.38 560.653C1001.65 580.253 1001.65 645.055 999.38 664.656C986.8 766.792 947.189 855.46 880.545 930.662C873.051 939.063 862.612 950.13 857.393 955.196L847.892 964.263L831.431 963.463C806.54 962.13 799.715 961.33 799.715 959.463C799.715 958.53 804.533 953.73 810.287 948.796C835.714 927.462 864.486 895.995 884.559 867.594C926.848 807.593 952.675 740.791 962.578 665.989C965.389 644.255 965.79 586.12 963.247 565.32C957.761 520.519 946.653 477.984 930.327 439.583C926.045 429.45 925.643 427.45 925.108 411.316C924.706 396.249 924.037 392.249 920.29 381.582C915.606 367.715 911.725 360.381 903.295 349.181C897.139 341.047 884.693 329.18 876.931 323.98C874.255 322.114 871.98 319.98 871.98 319.047C871.98 318.113 873.184 314.247 874.79 310.38C876.396 306.513 878.136 301.98 878.805 300.246C879.474 298.646 880.545 297.313 881.214 297.313C881.883 297.313 885.228 300.513 888.708 304.246ZM178.374 315.98L177.437 331.847L165.125 348.514C124.978 402.249 98.7487 461.45 85.0987 529.185C83.0913 539.719 80.5487 548.786 79.7457 549.319C78.5413 550.119 78.5413 550.519 79.7457 551.319C80.8163 551.986 81.084 554.119 80.5487 557.853C80.1472 560.786 79.0766 570.787 78.2737 579.853L76.9355 596.387L60.609 613.454C51.6428 622.921 43.4796 630.655 42.409 630.655C40.8032 630.655 40.6693 625.721 41.3384 599.587C41.7399 582.654 42.6767 567.053 43.3458 565.186C45.0855 560.92 55.1222 555.719 67.7016 552.519C72.5193 551.319 76.6678 550.119 77.0693 549.719C78.2737 548.653 65.4266 550.919 56.7281 553.453C51.9105 554.786 47.2267 555.986 46.4237 555.986C44.1487 555.986 44.684 548.386 48.2973 528.385C62.884 450.25 93.5296 381.448 141.84 319.047C147.059 312.247 152.278 306.38 153.349 305.846C157.096 304.246 172.753 300.246 175.965 300.113L179.176 299.98L178.374 315.98ZM722.365 306.78C725.845 309.047 728.789 311.847 728.789 312.913C728.789 315.447 718.351 330.647 715.942 331.58C713.667 332.38 709.652 330.647 704.032 326.114C700.686 323.447 700.418 322.78 702.024 319.847C706.307 311.847 712.864 302.646 714.336 302.646C715.139 302.646 718.752 304.513 722.365 306.78ZM749.933 326.78C756.357 331.847 767.865 341.981 775.627 349.181C787.671 360.381 790.749 364.115 796.102 374.115C799.582 380.648 806.273 390.649 811.09 396.249C815.908 401.849 819.789 407.182 819.789 407.982C819.789 410.516 810.421 427.983 809.083 427.983C808.28 427.983 804.934 423.983 801.321 419.049C779.909 389.049 749.532 357.848 725.176 340.647C721.964 338.381 719.421 335.714 719.421 334.514C719.421 332.38 729.458 317.447 732.001 315.713C733.874 314.513 736.551 316.113 749.933 326.78ZM849.096 323.447C852.843 327.447 855.921 331.314 855.921 331.847C855.921 333.714 843.877 360.515 842.405 361.981C841.468 362.915 839.193 361.181 835.446 356.648C832.368 353.048 826.079 345.847 821.529 340.781C816.845 335.714 813.098 330.78 813.098 329.98C813.098 326.647 822.867 319.58 830.361 317.18C839.059 314.647 842.004 315.58 849.096 323.447ZM876.396 330.514C888.173 338.647 901.287 354.381 909.317 370.515C916.275 384.115 921.093 406.382 917.614 408.649C916.945 409.049 912.93 403.449 908.915 396.249C899.548 379.715 888.708 363.181 875.593 345.581C866.895 333.98 865.556 331.447 866.627 329.18C868.501 325.847 869.839 325.98 876.396 330.514ZM825.142 352.914C831.967 360.915 837.855 368.115 838.256 369.048C839.193 371.715 831.699 386.649 829.424 386.649C827.149 386.649 825.543 384.782 819.12 375.182C810.154 361.581 805.47 338.647 811.893 338.647C812.429 338.647 818.317 345.047 825.142 352.914ZM870.642 349.581C873.987 354.114 877.467 360.515 878.403 363.848C884.158 384.915 883.89 391.049 876.664 398.249C874.255 400.649 871.445 402.649 870.374 402.649C868.233 402.649 847.892 373.315 847.892 370.248C847.892 368.515 857.393 347.848 860.471 342.914C862.345 339.847 864.62 341.314 870.642 349.581ZM898.878 391.715C911.056 412.249 916.409 423.849 915.473 427.983C913.733 435.716 900.35 450.65 895.131 450.65C893.258 450.65 878.671 422.783 878.671 419.183C878.671 417.983 879.876 415.583 881.348 413.716C886.165 407.582 888.44 396.782 887.503 384.782L886.701 373.982L889.511 377.315C890.983 379.048 895.265 385.582 898.878 391.715ZM851.371 386.915C862.478 402.116 863.014 405.182 854.181 403.316C848.293 401.982 837.186 396.249 836.383 394.115C835.58 391.849 842.004 378.648 843.877 378.648C844.68 378.648 848.026 382.382 851.371 386.915ZM833.706 420.916C842.673 434.916 849.364 448.383 848.159 449.583C847.356 450.383 841.334 448.783 833.706 445.85C817.112 439.717 813.098 437.716 813.098 435.45C813.098 432.916 825.142 411.982 826.614 411.982C827.283 411.982 830.495 415.983 833.706 420.916ZM850.836 422.783C854.315 423.583 859.936 423.983 864.887 423.449L873.318 422.516L880.009 435.983C888.306 452.517 888.44 454.117 881.214 455.317C875.326 456.384 861.943 455.05 858.33 453.184C855.921 451.85 841.201 425.049 841.201 421.716C841.201 420.516 842.004 419.983 843.074 420.383C844.145 420.783 847.624 421.849 850.836 422.783ZM929.792 455.317C940.899 483.718 949.731 517.185 955.218 551.986C957.761 568.92 958.162 576.387 958.162 612.654C958.162 657.322 956.69 672.122 948.795 707.99C929.658 793.726 882.552 874.794 817.781 933.596C808.949 941.596 798.243 950.93 793.827 954.263C785.798 960.13 785.798 960.13 777.768 959.33C760.907 957.463 744.446 954.796 743.242 953.596C742.439 952.796 747.39 948.53 755.687 942.663C806.942 906.128 850.568 856.927 879.34 802.926C886.299 789.859 887.771 787.992 890.046 788.792C898.745 791.592 901.287 791.059 906.64 785.725C915.874 776.658 916.945 763.458 909.986 747.858L906.64 740.391L910.789 725.857C920.959 691.456 925.375 662.256 926.446 624.655C927.784 574.52 922.03 533.852 906.774 486.384L901.689 470.517L907.577 463.85C910.789 460.25 915.339 453.584 917.614 449.183C919.755 444.783 922.298 441.317 923.1 441.583C923.903 441.85 926.981 448.117 929.792 455.317ZM785.396 452.65C793.426 455.584 793.693 458.65 786.199 467.184C779.508 474.784 772.282 478.651 762.914 479.584C749.799 480.918 739.495 474.251 739.495 464.384C739.495 458.917 745.115 452.784 752.074 450.65C757.962 448.783 777.768 449.983 785.396 452.65ZM207.949 462.65C211.026 464.117 213.569 465.317 213.569 465.584C213.569 465.851 209.956 474.651 205.674 485.318L197.912 504.652L192.693 505.052C185.868 505.718 177.035 504.252 174.225 502.251C172.218 500.785 172.218 499.851 175.162 491.318C179.31 479.451 185.065 465.584 187.741 461.45C189.481 458.65 190.418 458.517 195.904 459.317C199.384 459.85 204.737 461.317 207.949 462.65ZM181.05 462.917C179.712 468.251 168.471 496.118 166.999 497.585C164.857 499.718 159.103 493.318 158.032 487.718C156.962 481.984 159.103 473.451 162.85 468.784C166.196 464.517 174.225 460.117 178.641 459.984C181.184 459.984 181.585 460.517 181.05 462.917ZM222.134 472.251C228.29 481.051 221.063 498.118 209.153 502.518C202.194 505.185 202.863 500.251 212.632 478.251C216.915 468.784 218.788 467.451 222.134 472.251ZM847.223 476.117C851.639 477.451 856.323 478.651 857.661 478.651C862.077 478.651 865.155 483.851 870.374 500.251C876.262 518.252 881.481 539.986 884.693 560.653C887.637 578.787 888.842 625.855 886.834 645.988C884.961 665.856 881.481 686.389 879.608 689.99C878.805 691.456 878.27 693.323 878.403 694.256C879.34 699.056 867.296 736.791 864.486 737.857C860.605 739.324 839.862 741.858 838.926 740.924C837.32 739.191 850.702 699.59 853.914 696.523C856.456 694.256 856.59 693.59 854.984 692.523C853.379 691.456 853.379 689.456 855.787 677.989C860.203 655.855 861.676 639.188 861.676 612.654C861.676 567.32 854.851 530.519 838.256 488.384C833.037 474.784 832.77 470.917 837.052 472.651C838.256 473.184 842.806 474.784 847.223 476.117ZM902.492 490.651C916.945 535.986 922.431 574.92 921.093 623.855C920.156 661.722 915.473 691.456 905.436 725.457L902.759 734.257L893.793 734.124C888.708 733.991 882.017 734.524 878.805 735.191L872.917 736.257L873.586 732.524C873.987 730.391 876.53 720.79 879.206 711.323C892.856 663.189 896.336 606.654 888.574 556.653C886.031 539.852 878.671 509.585 873.318 494.118C868.768 480.784 869.036 480.118 878.002 479.984C880.946 479.851 886.031 478.784 889.377 477.451C893.793 475.717 895.801 475.451 897.005 476.517C897.808 477.317 900.35 483.718 902.492 490.651ZM169.809 536.652C172.485 537.719 177.303 538.652 180.649 538.652C183.994 538.652 186.938 539.186 187.34 539.719C187.741 540.386 186.938 547.453 185.466 555.453C184.128 563.453 182.79 571.987 182.522 574.52C181.853 581.587 179.31 580.92 174.894 572.387C169.407 561.986 169.675 564.52 175.563 579.053L180.381 591.054L180.782 615.854C181.451 650.389 185.6 679.189 194.165 707.457C196.038 713.457 197.51 719.59 197.51 721.19C197.51 724.924 182.79 742.791 180.113 742.391C175.831 741.591 162.582 695.323 157.765 663.989C154.419 642.655 154.419 582.92 157.631 562.653C160.843 543.319 162.716 534.652 164.054 534.652C164.59 534.652 167.266 535.586 169.809 536.652ZM33.1752 608.387C32.7737 628.921 32.1046 637.322 31.034 636.922C27.9561 635.855 24.6105 623.321 23.9414 610.654C23.4061 599.987 23.6738 596.654 26.2164 589.32C29.4282 579.987 31.4355 576.653 32.9076 578.253C33.4429 578.787 33.5767 592.387 33.1752 608.387ZM101.96 580.92C104.102 587.72 107.581 594.387 111.328 598.787L115.477 603.721L116.28 628.255C117.216 654.655 120.294 678.789 125.915 702.79C131.535 726.257 131.402 724.79 126.852 726.391C114.674 730.657 115.343 748.791 128.19 760.925C130.599 763.325 136.085 766.792 140.234 768.658L147.996 772.125L157.765 791.726C187.474 850.794 227.085 898.128 278.741 936.529C290.25 945.063 295.201 949.463 295.201 951.33C295.201 955.33 288.778 977.597 287.172 979.197C285.566 980.797 265.76 967.73 245.018 951.063C225.212 935.329 197.109 907.062 180.381 886.261C172.887 876.928 166.731 868.661 166.731 867.994C166.731 867.327 169.809 864.527 173.422 861.727C177.169 859.061 180.113 855.994 180.113 855.06C180.113 851.327 175.831 851.727 169.809 855.86C166.463 858.261 162.85 859.994 161.779 859.727C158.969 859.194 142.91 833.46 131.402 810.659C100.622 750.391 85.7678 691.856 84.1619 624.921L83.359 594.387L91.2546 586.52C95.5369 582.253 99.5516 578.653 100.221 578.653C100.756 578.653 101.559 579.72 101.96 580.92ZM77.4707 626.921C79.7457 690.123 93.6634 746.924 120.562 803.459C129.127 821.326 140.368 841.327 149.602 854.927C152.412 859.061 154.687 863.461 154.687 864.527C154.687 866.527 129.796 883.995 126.852 883.995C125.915 883.995 121.9 879.061 118.019 872.928C77.6046 811.059 50.7061 735.191 43.7473 663.989C42.8105 655.589 42.0076 646.788 41.7399 644.522C41.3384 641.988 42.1414 638.922 43.6134 636.655C47.6281 630.655 73.1884 603.987 74.9281 603.987C76.2663 603.987 76.8016 609.721 77.4707 626.921ZM229.628 702.923C234.446 725.324 234.312 738.524 229.36 749.058C223.472 761.591 220.126 751.991 219.725 720.657C219.591 709.457 220.126 704.79 221.866 700.923C225.078 693.856 227.754 694.523 229.628 702.923ZM839.059 724.124C836.517 731.724 833.439 739.324 832.368 740.924C830.495 743.858 826.614 744.924 824.74 743.191C824.339 742.658 827.818 734.524 832.636 725.057C843.208 703.99 846.286 703.457 839.059 724.124ZM214.238 734.657C219.324 752.791 219.591 754.658 217.45 754.658C215.978 754.658 210.357 742.924 205.54 729.591C202.596 721.59 202.596 721.19 204.871 718.657C206.209 717.19 207.815 716.39 208.484 717.057C209.019 717.59 211.696 725.59 214.238 734.657ZM205.406 740.124C208.216 747.058 212.097 755.858 214.104 759.725C217.985 767.192 218.387 770.658 216.112 775.058C214.506 777.992 214.64 777.992 217.316 775.592C220.528 772.658 219.993 772.125 232.037 791.726C257.865 833.993 301.223 876.928 343.645 902.395C359.169 911.729 390.617 926.662 405.606 931.996C412.163 934.262 418.854 937.329 420.326 938.663C426.884 944.796 435.582 947.329 451.106 947.463C459.269 947.463 470.911 948.263 477.201 949.196C483.491 950.13 497.944 951.33 509.319 951.73C529.526 952.663 530.061 952.796 530.463 955.73C530.998 959.063 530.597 959.196 519.489 961.33L511.594 962.93L512.53 969.997C513.066 975.064 512.798 977.197 511.594 977.73C508.783 978.797 478.539 976.13 461.811 973.33C412.297 964.93 363.317 946.263 323.706 920.662L312.598 913.329V906.662C312.598 899.062 311.26 898.128 308.985 903.995C308.182 906.128 306.844 907.995 306.175 907.995C304.168 907.995 284.228 891.995 270.176 879.194C248.631 859.461 223.472 828.526 207.547 802.392C204.201 796.659 201.659 791.459 202.06 790.792C202.462 790.125 201.926 789.325 200.856 788.792C198.715 787.992 183.191 756.925 181.987 750.924C181.318 747.724 182.522 745.458 189.481 736.791C194.031 731.191 198.313 726.657 198.982 726.924C199.651 727.191 202.596 733.057 205.406 740.124ZM877.868 742.258C877.199 744.391 876.664 751.324 876.664 757.991C876.798 767.725 877.333 771.058 879.742 775.592C881.348 778.659 882.686 782.259 882.686 783.459C882.686 786.659 865.423 817.593 854.181 834.393C826.079 876.128 785.798 916.262 744.58 943.729C732.135 951.996 731.332 952.263 725.443 951.463C718.886 950.396 717.28 947.329 721.696 943.863C725.176 940.929 728.789 931.862 728.789 925.729C728.789 920.262 728.923 920.129 743.911 908.929C797.842 868.261 839.729 814.659 864.62 753.991C870.508 739.724 871.311 738.657 875.593 738.657C878.671 738.657 878.805 739.058 877.868 742.258ZM863.415 744.791C861.676 751.591 849.23 777.725 840.398 793.192C822.465 824.526 796.905 856.927 772.282 879.461C758.23 892.261 731.599 913.329 729.458 913.329C728.655 913.329 726.514 911.462 724.507 909.329C717.682 901.595 706.173 905.462 700.151 917.595C698.277 921.462 696.671 925.862 696.671 927.462C696.671 929.062 696.27 931.462 695.868 932.662C694.396 936.396 664.286 950.396 639.127 958.93C623.202 964.397 596.571 970.93 594.832 969.863C594.029 969.463 592.289 966.263 590.817 963.063C587.739 955.73 588.274 954.663 598.311 950.663C603.396 948.53 605.671 946.929 605.939 944.929C606.341 942.529 609.82 940.929 628.421 934.662C660.539 923.996 695.467 906.528 718.217 889.728C724.239 885.328 729.19 882.928 734.811 881.594C747.123 878.794 757.829 872.528 769.07 861.327C779.909 850.66 785.932 840.793 789.411 827.86C790.749 823.06 795.433 814.659 803.998 801.992C814.302 786.659 832.234 754.525 834.777 746.791C835.312 744.791 849.631 741.724 859.133 741.458C863.951 741.324 864.218 741.458 863.415 744.791ZM189.481 778.125C214.506 827.593 247.025 867.727 289.715 901.862C298.681 909.062 305.907 914.929 305.907 915.062C305.907 915.195 304.168 921.062 302.16 927.996C299.618 936.529 297.744 940.796 296.272 941.063C291.588 941.996 252.378 909.729 230.832 887.061C202.863 857.594 173.422 814.926 159.237 782.925C155.088 773.592 155.222 772.525 160.04 770.925C162.181 770.125 166.463 766.258 169.675 762.125C172.887 757.991 175.965 754.791 176.634 755.058C177.437 755.325 183.057 765.725 189.481 778.125ZM756.089 820.66C763.449 824.126 772.951 831.993 772.951 834.66C772.951 837.593 748.595 861.327 745.651 861.327C738.023 861.327 723.436 849.727 719.154 840.26L716.477 834.527L719.689 828.26C725.845 815.993 739.896 813.059 756.089 820.66ZM776.296 842.66C777.768 845.06 771.077 856.527 766.393 859.594C761.442 862.927 755.554 863.594 755.554 861.061C755.554 859.327 772.817 841.327 774.557 841.327C775.092 841.327 775.895 841.993 776.296 842.66ZM171.682 885.595C199.919 921.462 235.382 954.263 273.522 979.997C280.213 984.53 285.834 988.531 285.834 988.931C285.834 990.931 282.622 1002.13 281.819 1003.06C281.15 1003.73 275.529 1001.6 268.972 998.397C257.463 992.797 257.062 992.664 242.876 992.531L228.423 992.397L217.316 983.464C199.518 969.063 177.437 947.863 162.047 930.529C144.784 911.062 131.803 893.861 132.74 891.595C133.409 889.995 158.434 871.994 160.04 871.994C160.441 871.994 165.794 878.128 171.682 885.595ZM119.759 911.995C134.078 919.195 135.952 935.729 123.372 941.463C116.012 944.796 104.369 944.663 88.0428 941.196C71.7163 937.729 69.8428 936.263 75.9987 931.729C108.116 907.862 109.99 906.928 119.759 911.995ZM335.884 933.329C391.42 965.063 456.726 982.664 519.623 982.664H537.288L539.563 990.131C541.035 995.197 541.302 997.997 540.366 998.931C539.563 999.731 534.611 1001.33 529.125 1002.66C520.828 1004.53 519.355 1005.33 518.686 1008.13C517.883 1011.33 517.75 1011.33 503.832 1010.93C458.064 1009.6 405.07 997.331 359.57 977.464C346.322 971.73 342.04 968.797 342.04 965.73C342.04 962.663 336.82 953.33 327.185 939.463C322.1 932.262 318.353 925.729 318.754 925.196C319.156 924.529 319.825 924.129 320.36 924.529C320.895 924.796 327.854 928.796 335.884 933.329ZM313.401 935.729C323.304 943.063 335.348 957.73 335.348 962.663C335.348 963.33 334.412 963.997 333.341 963.997C330.531 963.997 301.893 946.929 301.09 944.663C300.688 943.729 301.09 940.529 301.893 937.463C303.632 930.796 306.041 930.396 313.401 935.729ZM699.348 944.129C702.158 947.463 704.835 948.663 713.265 950.663C719.02 952.13 724.105 953.463 724.373 953.863C725.845 955.196 722.767 957.463 711.66 963.597C685.43 977.864 645.149 993.331 618.652 999.464C609.552 1001.6 607.946 1001.6 606.876 999.864C604.601 996.131 605.805 994.664 615.441 989.864C620.66 987.197 625.21 984.797 625.477 984.664C625.745 984.397 624.674 981.864 623.202 978.797C618.92 970.53 619.321 969.73 630.161 966.663C642.607 962.93 670.174 952.13 683.958 945.463C689.846 942.529 694.932 940.129 695.333 940.129C695.735 939.996 697.474 941.863 699.348 944.129ZM311.662 958.53C317.684 962.13 326.248 967.197 330.665 969.597C338.694 974.264 338.694 974.264 338.56 980.264C338.159 989.064 330.798 1002.66 326.382 1002.66C324.375 1002.66 298.547 988.931 293.595 985.197L290.651 982.93L293.729 969.73C296.807 957.063 298.547 951.996 300.019 951.996C300.42 951.996 305.64 954.93 311.662 958.53ZM548.127 953.33C548.127 953.996 546.923 954.663 545.451 954.663C543.979 954.663 542.775 953.996 542.775 953.33C542.775 952.53 543.979 951.996 545.451 951.996C546.923 951.996 548.127 952.53 548.127 953.33ZM763.449 959.73C772.415 961.063 778.973 962.663 779.24 963.597C779.909 965.33 754.483 982.664 738.558 991.464C729.993 996.264 729.86 996.397 725.31 994.264C722.901 993.064 718.351 989.864 715.139 987.064C710.054 982.797 710.321 983.064 716.477 989.464C720.224 993.464 723.436 997.464 723.436 998.397C723.436 1001.33 689.713 1016.4 661.476 1025.86C632.704 1035.6 588.676 1045.33 573.955 1045.33H568.602L564.32 1031.2C561.911 1023.46 560.439 1016.53 561.108 1016C562.045 1015.06 590.282 1010.66 595.233 1010.66C596.571 1010.66 598.846 1014.4 601.657 1021.33C604.066 1027.2 606.474 1032.26 607.01 1032.66C608.214 1033.33 616.377 1030.8 618.251 1029.2C618.92 1028.53 617.716 1024.13 615.173 1018.53C612.63 1012.93 611.426 1008.4 612.095 1007.73C612.764 1007.06 618.92 1005.06 625.879 1003.2C660.807 993.997 707.913 973.997 730.127 959.063C735.346 955.596 736.283 955.596 763.449 959.73ZM579.977 965.863C581.851 970.663 581.851 971.197 579.844 972.663C578.639 973.597 571.413 974.93 563.919 975.864C552.008 977.197 550.001 977.064 548.261 975.33C546.789 973.863 546.522 972.663 547.458 971.197C548.797 969.063 572.617 960.13 576.097 960.53C577.033 960.53 578.773 963.063 579.977 965.863ZM800.384 965.33C801.589 967.33 797.708 973.73 790.482 981.597C782.184 990.531 768.936 997.864 756.758 1000.13C748.193 1001.73 740.833 1001.06 740.833 998.797C740.833 998.264 747.257 993.731 755.286 988.931C763.182 983.997 774.423 976.53 780.311 972.13C790.749 964.397 798.243 961.863 800.384 965.33ZM839.059 971.197C837.989 974.13 810.287 995.731 791.686 1008.4C724.373 1053.87 648.896 1081.07 566.194 1089.47C545.585 1091.47 497.141 1091.47 476.532 1089.47C415.91 1083.33 359.035 1066.93 305.907 1040.53C282.22 1028.66 278.607 1026.13 280.481 1022.66C281.284 1021.33 283.023 1014.8 284.629 1008.4C288.243 992.397 288.51 991.997 290.384 991.997C292.391 991.997 317.817 1005.6 320.762 1008.4C321.966 1009.46 324.375 1010.66 326.115 1011.06C327.854 1011.46 337.088 1015.06 346.456 1019.2C387.138 1036.93 432.504 1048.53 479.744 1053.33C503.698 1055.73 550.536 1055.07 574.491 1052C626.548 1045.33 674.457 1031.06 717.414 1009.6C731.733 1002.53 732.268 1002.4 737.889 1003.86C750.335 1007.06 767.196 1004.93 780.311 998.397C783.255 996.797 793.158 990.797 802.258 984.93C811.492 979.064 821.662 973.197 825.008 971.863C832.636 968.797 840.13 968.53 839.059 971.197ZM535.147 974.264C536.619 975.597 533.273 978.664 530.195 978.664C528.723 978.664 526.448 977.997 525.378 977.33C523.772 976.397 524.039 975.864 526.716 974.797C530.73 973.197 533.942 973.063 535.147 974.264ZM605.671 974.664C605.671 975.997 601.389 978.664 599.114 978.664C596.438 978.664 597.642 975.997 600.72 974.664C604.601 973.063 605.671 973.063 605.671 974.664ZM361.578 984.13C404.669 1002.53 448.295 1012.8 497.944 1016C514.003 1017.06 519.757 1017.86 520.828 1019.33C522.701 1021.86 524.842 1021.86 535.682 1019.06C546.522 1016.4 546.254 1016.26 550.67 1033.33C553.213 1042.8 553.48 1045.87 552.276 1047.07C550.135 1049.2 497.676 1049.07 477.87 1046.8C443.344 1043.07 411.761 1036.13 381.116 1025.86C362.381 1019.6 337.623 1009.33 333.207 1006C330.798 1004.26 330.798 1004 333.073 1000.4C334.412 998.397 337.623 992.264 340.166 986.93C342.709 981.73 344.984 977.33 345.251 977.33C345.519 977.33 352.879 980.397 361.578 984.13ZM585.598 982.664C585.598 984.53 582.654 986.13 573.955 989.331C567.398 991.731 560.172 993.731 557.629 993.864C553.347 993.997 552.811 993.597 551.741 988.931C551.072 985.997 550.938 983.33 551.607 982.664C553.48 980.93 581.985 977.73 583.992 979.064C584.795 979.73 585.598 981.33 585.598 982.664ZM593.36 1002.93C592.958 1003.86 590.683 1004.8 588.141 1005.06C583.858 1005.33 583.724 1005.2 586.133 1003.33C589.345 1000.93 594.029 1000.66 593.36 1002.93Z" fill="#B09560"/>
<path d="M452.31 295.447C444.28 298.247 436.519 305.447 434.645 311.714C432.772 317.98 432.638 320.38 434.244 319.447C434.913 318.914 438.526 319.314 442.273 320.247C447.76 321.447 450.436 321.314 457.93 319.58C479.074 314.38 489.245 301.58 477.201 295.314C472.383 292.78 459.67 292.914 452.31 295.447Z" fill="#B09560"/>
<path d="M332.939 359.981C332.939 362.514 333.207 363.581 333.609 362.248C333.876 361.048 333.876 358.914 333.609 357.581C333.207 356.381 332.939 357.448 332.939 359.981Z" fill="#B09560"/>
<path d="M402.26 403.849C384.194 410.382 372.417 415.716 358.633 423.983C352.478 427.716 346.589 430.65 345.251 430.65C343.511 430.65 343.244 431.45 344.047 434.25C344.448 436.383 345.251 438.383 345.786 438.916C346.322 439.45 351.006 437.183 356.091 433.85C368.67 425.716 389.547 415.449 404.133 410.249C412.966 407.049 416.311 405.182 417.114 403.049C417.65 401.449 417.783 399.849 417.248 399.449C416.713 399.182 410.022 401.182 402.26 403.849Z" fill="#B09560"/>
<path d="M237.791 577.854C233.776 580.121 231.1 584.787 230.966 589.721C230.966 594.121 236.185 599.987 240.2 599.987C243.947 599.987 248.363 593.721 248.363 588.387C248.363 584.921 249.032 583.587 251.039 583.054C254.385 582.121 254.385 581.054 251.307 579.187C247.158 576.521 241.136 575.987 237.791 577.854Z" fill="#B09560"/>
<path d="M248.363 643.322C245.955 646.255 248.23 649.989 252.512 649.989C255.188 649.989 255.724 649.322 255.724 645.989C255.724 642.922 255.055 641.855 252.913 641.589C251.441 641.322 249.3 642.122 248.363 643.322Z" fill="#B09560"/>
<path d="M222.937 645.989C219.457 650.255 224.676 656.789 229.36 653.855C233.91 650.922 232.304 643.989 226.951 643.989C225.613 643.989 223.873 644.922 222.937 645.989Z" fill="#B09560"/>
<path d="M365.057 760.124C361.31 763.591 360.909 764.525 362.515 765.858C365.726 768.258 369.34 781.325 369.473 790.259C369.473 795.725 369.875 797.725 370.678 796.392C372.284 793.459 372.016 781.992 370.142 772.258C369.206 767.858 368.804 762.258 369.072 759.991C369.473 757.858 369.607 755.991 369.607 755.991C369.473 755.991 367.466 757.858 365.057 760.124Z" fill="#B09560"/>
<path d="M352.076 771.991C348.731 775.325 347.258 777.858 348.195 778.392C350.069 779.725 359.436 803.326 359.436 806.926C359.436 808.926 359.838 809.459 360.775 808.526C361.845 807.459 361.31 803.192 359.436 794.525C357.429 786.125 356.76 779.458 357.161 774.258C357.563 770.125 357.697 766.658 357.563 766.658C357.429 766.658 354.886 769.058 352.076 771.991Z" fill="#B09560"/>
<path d="M280.748 780.259C278.607 782.393 278.741 788.659 281.15 793.193C286.369 803.459 304.435 812.659 312.598 809.326C314.739 808.393 317.416 806.659 318.62 805.326C320.895 802.793 321.297 803.459 310.189 790.526C302.294 781.459 285.432 775.593 280.748 780.259Z" fill="#B09560"/>
<path d="M447.76 836.661C446.288 838.394 447.76 839.461 457.395 843.861C472.116 850.661 489.379 856.661 505.973 860.927C513.334 862.794 520.025 864.794 520.961 865.594C522.032 866.527 523.103 865.727 524.575 862.794C525.779 860.661 526.314 858.527 525.645 858.261C525.11 857.861 519.623 856.527 513.334 855.327C498.881 852.394 477.736 845.594 464.354 839.461C452.979 834.127 450.169 833.727 447.76 836.661Z" fill="#B09560"/>
<path d="M334.277 860.928C333.341 861.328 332.002 863.061 331.2 864.928C327.586 874.395 343.377 888.661 360.373 891.461C364.388 891.995 367.332 891.595 371.614 889.595C377.77 886.795 384.863 881.995 380.58 883.461C379.108 883.995 377.235 882.395 374.291 878.261C366.261 866.528 344.18 856.928 334.277 860.928Z" fill="#B09560"/>
<path d="M481.082 922.262C479.342 924.396 479.476 924.529 481.617 922.796C483.758 921.062 484.427 919.996 483.357 919.996C483.089 919.996 482.019 921.062 481.082 922.262Z" fill="#B09560"/>
<path d="M221.565 1.37596C200.196 5.38833 183.44 14.6853 167.438 31.5176C145.316 54.6132 131.479 86.3207 125.454 128.01C123.101 143.864 123.101 196.122 125.454 218.631C130.726 269.617 140.421 323.05 156.33 388.52C159.907 403.395 162.825 415.922 162.825 416.411C162.825 416.9 153.6 425.512 142.398 435.592C107.757 466.419 83.4706 491.178 64.3615 515.252C34.1446 553.419 12.1173 603.818 3.83356 653.63C-2.19099 690.524 -1.06138 734.367 6.84584 769.108C24.7312 847.202 77.0695 906.801 149.458 931.56C177.51 941.15 196.996 944.282 232.013 944.967C261.76 945.554 280.116 943.695 302.331 937.921C305.532 937.04 305.532 937.138 311.18 959.451C322.57 1005.25 327.088 1042.44 324.923 1070.92C322.57 1100.18 313.91 1119.95 294.142 1140.5C284.352 1150.77 270.232 1161.34 260.63 1165.84C241.427 1174.65 220.906 1176.02 207.445 1169.37C201.985 1166.63 193.889 1159.68 193.889 1157.72C193.889 1157.23 197.372 1154.69 201.608 1152.14C218.552 1142.06 229.566 1126.21 233.614 1106.05C236.061 1093.42 235.59 1073.85 232.484 1062.7C226.554 1041.17 209.892 1020.22 190.971 1010.34C170.544 999.574 146.54 999.672 124.325 1010.53C110.016 1017.58 94.6725 1031.28 87.7066 1043.42C77.3519 1061.42 75.3751 1088.82 82.9058 1112.12C89.2127 1131.79 102.391 1149.21 118.582 1159.29C120.371 1160.46 125.266 1162.61 129.408 1164.08C136.28 1166.63 138.068 1166.92 150.588 1166.92H164.237L176.945 1173.48C204.432 1187.57 227.777 1191.58 258.183 1187.47C309.956 1180.42 339.608 1147.74 346.856 1089.8C348.739 1074.83 348.645 1045.96 346.762 1028.15C344.315 1004.86 338.479 975.206 331.324 949.566C327.088 934.594 326.994 934.789 338.573 930.483C380.274 914.825 408.043 883.999 419.433 840.939C428.094 807.959 428.188 767.151 419.716 732.409C412.279 701.974 399.006 676.236 375.379 646.486C355.893 622.02 330.665 605.188 302.802 598.338C288.776 594.913 277.198 593.738 251.311 593.347L228.248 592.955L227.213 589.824C226.648 588.062 219.87 563.694 212.151 535.804L198.219 484.915L201.043 482.762C202.55 481.49 208.198 476.988 213.563 472.682C279.08 420.228 326.053 342.427 347.892 250.045C354.764 220.686 357.588 200.428 358.341 173.027C359.659 124.487 351.092 86.81 331.513 56.179C307.697 18.6976 276.068 -0.385564 238.226 0.00588664C232.766 0.00588664 225.236 0.690925 221.565 1.37596ZM262.136 49.3286C287.458 56.4726 304.967 79.5682 310.709 113.233C313.062 126.934 313.533 158.739 311.65 177.039C305.814 233.212 288.023 276.663 253.005 320.408C237.473 339.883 177.51 399.97 174.686 398.894C174.027 398.6 172.992 396.056 172.427 393.12C160.378 333.424 156.142 309.447 152.094 277.838C143.716 213.053 143.998 162.36 152.941 123.508C155.671 111.569 158.683 103.544 163.861 94.5411C176.851 71.837 203.679 52.5581 228.907 47.9586C236.061 46.5885 255.453 47.3714 262.136 49.3286ZM178.64 500.671C179.11 501.649 183.817 517.797 188.994 536.684C204.056 590.9 205.185 595.206 205.185 596.968C205.185 598.24 202.55 599.512 194.266 602.252C157.836 614.191 126.301 641.397 110.487 674.671C102.956 690.426 101.356 697.864 101.356 715.773C101.262 727.81 101.638 731.822 103.333 737.988C107.098 752.178 115.005 766.074 125.831 777.622C131.573 783.787 139.668 790.638 141.08 790.638C141.363 790.638 141.645 781.928 141.645 771.261C141.739 748.557 143.245 740.141 150.117 725.559C159.813 704.812 177.887 690.035 202.832 682.5C212.057 679.759 224.765 677.215 226.46 677.802C228.06 678.389 297.436 907.681 297.436 912.477C297.436 915.021 293.765 916.685 281.904 919.718C267.314 923.437 259.03 924.22 234.837 924.22C203.209 924.122 185.794 921.676 163.39 913.847C139.104 905.43 122.913 895.057 104.933 876.267C90.9071 861.784 83.753 851.41 75.281 833.208C62.3847 805.611 56.4542 776.448 56.4542 740.141C56.4542 699.038 63.9849 661.753 80.5525 621.433C101.074 571.523 132.797 529.932 170.827 503.117C177.322 498.518 177.51 498.42 178.64 500.671ZM282.375 677.606C297.907 680.053 313.062 686.708 325.77 696.592C335.278 704.029 350.057 720.666 357.493 732.312C373.59 757.267 380.462 780.166 380.556 808.742C380.65 853.955 363.236 884.879 327.371 903.277C323.888 905.039 320.781 906.213 320.499 905.92C320.122 905.626 314.851 888.207 308.732 867.264C293.953 816.963 282.375 778.894 265.337 725.559C257.618 701.289 251.311 680.542 251.311 679.368C251.311 677.606 251.97 677.215 255.359 676.823C264.584 675.943 273.997 676.236 282.375 677.606Z" fill="#433313"/>
<path d="M1213.95 482.992C1225.67 483.695 1235.52 484.281 1243.48 484.75C1251.69 484.984 1258.48 485.219 1263.88 485.453C1269.97 485.688 1275.12 485.688 1279.34 485.453C1283.56 485.219 1289.3 484.633 1296.57 483.695C1302.66 482.992 1310.75 481.938 1320.83 480.531C1331.14 478.891 1343.91 476.781 1359.15 474.203C1353.76 479.594 1349.54 484.516 1346.49 488.969C1343.68 493.188 1341.45 496.82 1339.81 499.867C1337.94 503.617 1336.65 506.781 1335.95 509.359C1335.48 511.703 1335.95 517.562 1337.35 526.938C1338.76 536.312 1340.75 547.445 1343.33 560.336C1345.91 572.992 1348.72 586.586 1351.77 601.117C1354.81 615.414 1357.86 628.891 1360.91 641.547C1363.95 653.969 1366.65 664.633 1368.99 673.539C1371.57 682.211 1373.45 687.367 1374.62 689.008C1378.13 693.93 1380.36 697.211 1381.3 698.852C1382.23 700.258 1383.88 701.547 1386.22 702.719C1387.16 703.188 1388.68 703.891 1390.79 704.828C1392.66 705.766 1395.12 706.938 1398.17 708.344C1401.45 709.75 1405.55 711.391 1410.48 713.266C1401.34 713.734 1393.48 714.086 1386.92 714.32C1380.36 714.32 1374.97 714.438 1370.75 714.672C1365.83 714.906 1361.61 715.141 1358.09 715.375C1354.58 715.375 1350.36 715.609 1345.44 716.078C1341.22 716.547 1335.71 717.016 1328.91 717.484C1322.35 717.953 1314.62 718.422 1305.71 718.891C1310.4 715.609 1314.15 712.68 1316.96 710.102C1320.01 707.289 1322.35 704.945 1323.99 703.07C1325.87 700.727 1327.16 698.617 1327.86 696.742C1328.33 694.633 1328.68 691.469 1328.91 687.25C1329.15 683.5 1329.15 678.578 1328.91 672.484C1328.68 666.156 1328.09 657.953 1327.16 647.875L1234.7 657.367C1232.35 661.352 1230.59 664.867 1229.42 667.914C1228.25 670.727 1227.43 673.188 1226.96 675.297C1226.26 677.875 1226.02 679.984 1226.26 681.625C1226.73 683.5 1227.55 685.727 1228.72 688.305C1229.89 690.648 1231.53 693.461 1233.64 696.742C1235.98 699.789 1239.38 703.422 1243.84 707.641C1237.98 707.406 1232 707.289 1225.91 707.289C1219.81 707.289 1214.19 707.406 1209.03 707.641C1202.94 707.875 1196.96 708.109 1191.1 708.344C1185.24 708.578 1178.56 708.93 1171.06 709.398C1164.73 709.867 1157.35 710.453 1148.91 711.156C1140.24 711.625 1130.98 712.328 1121.14 713.266C1127.23 710.453 1132.39 707.641 1136.61 704.828C1140.83 701.781 1144.34 698.969 1147.16 696.391C1150.44 693.578 1153.25 690.883 1155.59 688.305C1157.23 685.961 1160.52 680.57 1165.44 672.133C1170.36 663.461 1175.87 653.266 1181.96 641.547C1188.29 629.828 1194.85 617.289 1201.65 603.93C1208.68 590.57 1215.01 578.031 1220.63 566.312C1226.26 554.359 1230.83 544.047 1234.34 535.375C1237.86 526.703 1239.62 521.078 1239.62 518.5C1239.15 515.453 1237.98 512.055 1236.1 508.305C1234.46 505.023 1231.88 501.273 1228.37 497.055C1225.09 492.836 1220.28 488.148 1213.95 482.992ZM1322.94 621.859C1321.53 613.656 1320.24 606.625 1319.07 600.766C1317.9 594.672 1316.96 589.633 1316.26 585.648C1315.32 580.961 1314.62 576.859 1314.15 573.344C1313.45 570.062 1312.62 565.844 1311.69 560.688C1310.75 556.234 1309.58 550.727 1308.17 544.164C1307 537.367 1305.48 529.281 1303.6 519.906C1290.24 546.625 1279.81 567.367 1272.31 582.133C1265.05 596.664 1259.77 607.328 1256.49 614.125C1252.51 622.094 1250.28 626.781 1249.81 628.188L1322.94 621.859ZM1408.37 682.328C1410.01 674.594 1411.18 667.797 1411.88 661.938C1412.82 655.844 1413.52 650.805 1413.99 646.82C1414.46 642.133 1414.7 638.148 1414.7 634.867C1414.46 630.883 1414.23 626.195 1413.99 620.805C1413.99 615.18 1413.76 609.672 1413.29 604.281C1413.05 598.656 1412.7 593.734 1412.23 589.516C1411.77 585.062 1411.18 581.898 1410.48 580.023C1409.54 578.148 1408.25 576.156 1406.61 574.047C1403.33 570.062 1398.52 566.195 1392.2 562.445C1397.59 561.273 1402.16 560.336 1405.91 559.633C1409.89 558.695 1413.17 557.875 1415.75 557.172C1418.56 556.234 1421.02 555.414 1423.13 554.711C1425.01 554.008 1427.23 553.305 1429.81 552.602C1431.92 552.133 1434.5 551.547 1437.55 550.844C1440.59 550.141 1444.11 549.32 1448.09 548.383L1447.04 580.375C1454.54 571.469 1462.16 564.789 1469.89 560.336C1477.62 555.883 1484.89 552.719 1491.69 550.844C1499.42 548.5 1507.04 547.328 1514.54 547.328C1523.91 547.797 1532.59 549.32 1540.55 551.898C1548.76 554.477 1555.79 557.523 1561.65 561.039C1567.74 564.32 1572.66 567.836 1576.41 571.586C1580.16 575.336 1582.39 578.617 1583.09 581.43C1585.91 590.57 1586.61 599.008 1585.2 606.742C1583.8 614.242 1581.92 621.625 1579.58 628.891C1577.47 635.922 1575.59 642.953 1573.95 649.984C1572.55 657.016 1573.13 664.633 1575.71 672.836C1576.65 674.945 1577.59 677.055 1578.52 679.164C1579.46 681.039 1580.63 682.914 1582.04 684.789C1583.45 686.664 1585.09 688.188 1586.96 689.359C1584.38 689.125 1581.8 689.008 1579.23 689.008C1576.65 688.773 1574.3 688.539 1572.2 688.305C1569.62 688.07 1567.27 687.836 1565.16 687.602C1562.82 687.367 1559.66 687.25 1555.67 687.25C1548.88 687.25 1538.33 687.602 1524.03 688.305C1526.14 683.383 1527.78 679.281 1528.95 676C1530.36 672.484 1531.53 669.672 1532.47 667.562C1533.41 664.984 1534.11 662.992 1534.58 661.586C1537.39 654.789 1539.03 647.055 1539.5 638.383C1540.2 629.711 1539.62 620.922 1537.74 612.016C1537.04 608.969 1535.87 605.336 1534.23 601.117C1532.59 596.898 1530.36 592.797 1527.55 588.812C1524.97 584.828 1521.8 581.43 1518.05 578.617C1514.54 575.805 1510.44 574.164 1505.75 573.695C1501.06 573.227 1495.79 574.398 1489.93 577.211C1484.3 580.023 1478.21 585.18 1471.65 592.68C1466.73 599.008 1462.86 606.742 1460.05 615.883C1457.47 623.617 1455.71 633.344 1454.77 645.062C1453.84 656.547 1455.24 670.023 1458.99 685.492C1455.71 685.023 1452.66 684.789 1449.85 684.789C1447.04 684.555 1444.7 684.32 1442.82 684.086C1440.48 683.852 1438.37 683.617 1436.49 683.383C1434.38 683.383 1432.04 683.266 1429.46 683.031C1427.12 683.031 1424.19 683.031 1420.67 683.031C1417.16 682.797 1413.05 682.562 1408.37 682.328ZM1634.77 578.617C1635.95 577.211 1636.65 574.633 1636.88 570.883C1637.35 566.898 1638.29 562.445 1639.7 557.523C1641.34 552.602 1644.03 547.445 1647.78 542.055C1651.53 536.664 1657.62 531.625 1666.06 526.938C1674.27 522.25 1682.23 519.438 1689.97 518.5C1697.7 517.562 1705.09 517.914 1712.12 519.555C1719.15 521.195 1725.71 523.773 1731.8 527.289C1738.13 530.805 1743.88 534.672 1749.03 538.891C1752.55 541.703 1755.36 545.805 1757.47 551.195C1759.58 556.352 1761.22 562.211 1762.39 568.773C1763.56 575.336 1764.38 582.25 1764.85 589.516C1765.55 596.547 1766.02 603.461 1766.26 610.258C1766.49 616.82 1766.61 622.914 1766.61 628.539C1766.84 633.93 1767.31 638.383 1768.02 641.898C1768.95 647.055 1770.59 651.508 1772.94 655.258C1775.28 658.773 1777.86 661.82 1780.67 664.398C1783.48 666.742 1786.3 668.617 1789.11 670.023C1791.92 671.43 1794.38 672.484 1796.49 673.188C1797.9 673.891 1799.19 674.359 1800.36 674.594C1802.7 675.531 1804.34 675.531 1805.28 674.594C1803.88 677.875 1802.59 680.688 1801.41 683.031C1800.24 685.375 1799.3 687.367 1798.6 689.008C1797.66 690.883 1796.84 692.406 1796.14 693.578C1795.44 694.984 1794.62 696.273 1793.68 697.445C1792.98 698.617 1792.04 699.906 1790.87 701.312C1789.7 702.719 1788.52 704.242 1787.35 705.883C1784.3 704.711 1781.38 703.305 1778.56 701.664C1775.98 700.023 1773.64 698.5 1771.53 697.094C1768.95 695.453 1766.61 693.812 1764.5 692.172C1762.39 690.531 1760.4 688.656 1758.52 686.547C1756.88 684.672 1755.12 682.68 1753.25 680.57C1751.61 678.461 1750.2 676.117 1749.03 673.539C1747.62 676.586 1744.23 680.922 1738.84 686.547C1733.68 692.172 1726.88 697.328 1718.45 702.016C1710.01 706.469 1700.16 709.633 1688.91 711.508C1677.9 713.383 1665.71 712.094 1652.35 707.641C1646.49 705.766 1640.98 703.07 1635.83 699.555C1630.67 695.805 1626.22 691.352 1622.47 686.195C1618.95 681.039 1616.38 675.18 1614.73 668.617C1613.33 661.82 1613.45 654.32 1615.09 646.117C1616.73 637.914 1619.66 631 1623.88 625.375C1628.09 619.75 1633.13 615.18 1638.99 611.664C1644.85 608.148 1651.41 605.453 1658.68 603.578C1665.95 601.703 1673.45 600.414 1681.18 599.711C1687.27 599.477 1693.37 599.828 1699.46 600.766C1704.62 601.703 1710.01 603.461 1715.63 606.039C1721.26 608.383 1726.06 612.016 1730.05 616.938C1729.81 604.516 1729.34 594.672 1728.64 587.406C1728.17 579.906 1727.7 574.164 1727.23 570.18C1726.3 565.492 1725.48 562.211 1724.77 560.336C1723.6 558.695 1722.31 556.82 1720.91 554.711C1719.73 552.602 1718.21 550.727 1716.34 549.086C1714.46 547.211 1712.12 545.688 1709.3 544.516C1706.49 543.344 1703.21 542.875 1699.46 543.109C1695.48 543.344 1692.31 544.398 1689.97 546.273C1687.62 548.148 1685.75 550.375 1684.34 552.953C1683.17 555.297 1682.47 557.875 1682.23 560.688C1682 563.5 1682.12 565.961 1682.59 568.07C1683.05 569.477 1683.76 571 1684.7 572.641C1685.63 574.047 1686.92 575.57 1688.56 577.211C1690.2 578.852 1692.43 580.258 1695.24 581.43C1689.85 582.133 1685.05 582.719 1680.83 583.188C1676.61 583.422 1672.98 583.773 1669.93 584.242C1666.41 584.711 1663.37 585.062 1660.79 585.297C1658.21 585.531 1655.16 586 1651.65 586.703C1648.6 587.172 1644.85 587.758 1640.4 588.461C1635.95 589.164 1630.79 590.102 1624.93 591.273C1626.34 589.633 1627.62 588.109 1628.8 586.703C1629.97 585.062 1631.02 583.656 1631.96 582.484C1632.9 581.078 1633.84 579.789 1634.77 578.617ZM1687.51 620.453C1683.29 620.688 1679.07 621.742 1674.85 623.617C1670.63 625.258 1666.88 627.719 1663.6 631C1660.32 634.047 1657.51 637.68 1655.16 641.898C1653.05 645.883 1652 650.336 1652 655.258C1652 660.18 1653.17 664.516 1655.52 668.266C1658.09 671.781 1661.38 674.711 1665.36 677.055C1669.58 679.398 1674.03 680.805 1678.72 681.273C1683.64 681.742 1688.45 681.273 1693.13 679.867C1697.59 678.227 1701.8 675.648 1705.79 672.133C1709.77 668.383 1713.17 664.398 1715.98 660.18C1718.8 655.727 1720.79 651.391 1721.96 647.172C1723.13 642.719 1723.25 639.086 1722.31 636.273C1720.44 630.18 1716.22 625.961 1709.66 623.617C1703.09 621.039 1695.71 619.984 1687.51 620.453ZM1956.8 520.258C1954.7 525.414 1952.82 530.102 1951.18 534.32C1949.77 538.539 1948.48 542.289 1947.31 545.57C1946.14 549.32 1945.09 552.602 1944.15 555.414C1943.21 558.695 1942.16 562.445 1940.98 566.664C1939.81 570.414 1938.29 575.102 1936.41 580.727C1934.77 586.117 1932.78 592.562 1930.44 600.062C1928.56 588.812 1925.16 579.906 1920.24 573.344C1915.32 566.547 1910.28 561.273 1905.12 557.523C1899.03 553.305 1892.47 550.258 1885.44 548.383C1872.78 546.273 1863.64 546.508 1858.02 549.086C1852.39 551.664 1848.64 554.945 1846.77 558.93C1845.83 560.57 1844.77 562.68 1843.6 565.258C1842.66 567.602 1841.84 570.062 1841.14 572.641C1840.67 575.219 1840.55 577.797 1840.79 580.375C1841.02 582.953 1842.08 585.062 1843.95 586.703C1845.12 587.875 1848.17 589.516 1853.09 591.625C1858.02 593.5 1863.88 595.727 1870.67 598.305C1877.7 600.648 1885.09 603.227 1892.82 606.039C1900.79 608.852 1908.29 611.664 1915.32 614.477C1922.35 617.289 1928.45 620.102 1933.6 622.914C1938.76 625.727 1942.16 628.305 1943.8 630.648C1945.2 632.992 1946.73 636.156 1948.37 640.141C1950.24 643.891 1951.53 648.109 1952.23 652.797C1953.17 657.25 1953.41 661.938 1952.94 666.859C1952.7 671.547 1951.41 676.234 1949.07 680.922C1946.73 685.609 1942.98 689.945 1937.82 693.93C1932.9 697.914 1926.22 701.195 1917.78 703.773C1907.94 706.82 1898.45 707.641 1889.3 706.234C1880.16 704.828 1871.73 702.719 1863.99 699.906C1856.49 697.094 1849.93 694.398 1844.3 691.82C1838.68 689.008 1834.7 687.836 1832.35 688.305C1829.77 688.773 1826.84 690.062 1823.56 692.172C1820.28 694.281 1817.12 696.508 1814.07 698.852C1811.26 700.961 1808.8 702.953 1806.69 704.828C1804.58 706.469 1803.52 707.055 1803.52 706.586C1803.52 706.117 1803.88 704.711 1804.58 702.367C1805.52 700.023 1806.45 697.211 1807.39 693.93C1808.56 690.414 1809.62 686.664 1810.55 682.68C1811.73 678.461 1812.55 674.477 1813.02 670.727C1813.48 667.68 1814.07 663.93 1814.77 659.477C1815.24 655.492 1815.83 650.688 1816.53 645.062C1817.47 639.203 1818.52 632.172 1819.7 623.969C1820.87 630.062 1822.51 635.336 1824.62 639.789C1826.96 644.242 1829.19 648.109 1831.3 651.391C1833.88 655.141 1836.34 658.305 1838.68 660.883C1842.2 664.164 1846.3 667.211 1850.98 670.023C1855.91 672.836 1860.83 675.297 1865.75 677.406C1870.67 679.281 1875.36 680.453 1879.81 680.922C1884.27 681.391 1888.02 680.922 1891.06 679.516C1894.11 678.109 1896.69 675.531 1898.8 671.781C1901.14 668.031 1902.78 663.93 1903.72 659.477C1904.66 655.023 1905.01 650.805 1904.77 646.82C1904.54 642.602 1903.48 639.203 1901.61 636.625C1900.2 634.984 1896.92 632.875 1891.77 630.297C1886.84 627.719 1880.87 624.906 1873.84 621.859C1867.04 618.812 1859.77 615.648 1852.04 612.367C1844.54 609.086 1837.39 605.805 1830.59 602.523C1824.03 599.008 1818.52 595.727 1814.07 592.68C1809.85 589.398 1807.51 586.469 1807.04 583.891C1806.57 580.141 1806.22 576.039 1805.98 571.586C1805.75 566.898 1805.98 562.328 1806.69 557.875C1807.62 553.188 1809.27 548.734 1811.61 544.516C1814.19 540.297 1817.94 536.781 1822.86 533.969C1826.14 532.094 1830.48 530.688 1835.87 529.75C1841.26 528.812 1847.23 528.344 1853.8 528.344C1860.36 528.109 1867.16 528.344 1874.19 529.047C1881.22 529.516 1887.9 530.219 1894.23 531.156C1900.79 531.859 1906.65 532.797 1911.8 533.969C1917.2 535.141 1921.3 536.195 1924.11 537.133C1927.39 538.305 1930.91 538.422 1934.66 537.484C1937.94 536.781 1941.45 535.258 1945.2 532.914C1948.95 530.57 1952.82 526.352 1956.8 520.258ZM1965.24 499.516C1972.27 500.219 1978.13 500.805 1982.82 501.273C1987.74 501.742 1991.73 502.094 1994.77 502.328C1998.29 502.562 2001.1 502.68 2003.21 502.68C2005.32 502.914 2008.13 502.914 2011.65 502.68C2014.7 502.445 2018.68 502.211 2023.6 501.977C2028.52 501.508 2034.73 500.805 2042.23 499.867C2040.59 502.211 2039.3 504.32 2038.37 506.195C2037.43 507.836 2036.61 509.359 2035.91 510.766L2033.8 514.984C2033.33 516.391 2032.86 517.797 2032.39 519.203C2031.92 520.375 2031.45 521.781 2030.98 523.422C2030.75 525.062 2030.52 526.82 2030.28 528.695H2084.42L2079.5 557.172L2029.93 554.359C2028.76 566.312 2027.94 575.57 2027.47 582.133C2027 588.695 2026.53 593.5 2026.06 596.547L2025.36 602.875C2024.66 611.781 2023.95 621.508 2023.25 632.055C2022.55 642.367 2022.31 651.977 2022.55 660.883C2022.78 669.789 2023.6 677.289 2025.01 683.383C2026.41 689.242 2028.88 692.172 2032.39 692.172C2035.91 692.172 2039.19 691.234 2042.23 689.359C2045.28 687.484 2047.86 685.258 2049.97 682.68C2052.31 680.102 2054.07 677.523 2055.24 674.945C2056.41 672.133 2057 670.023 2057 668.617C2057 667.211 2056.65 665.57 2055.95 663.695C2054.77 660.18 2052.66 655.727 2049.62 650.336C2056.41 651.977 2062.39 653.617 2067.55 655.258C2070.12 656.195 2072.47 657.133 2074.58 658.07C2076.92 659.008 2079.62 660.062 2082.66 661.234C2085.24 662.406 2088.52 663.812 2092.51 665.453C2096.49 667.094 2101.18 669.086 2106.57 671.43C2101.41 672.367 2097.66 673.891 2095.32 676C2093.91 676.938 2092.86 677.992 2092.16 679.164C2090.52 681.742 2088.64 685.258 2086.53 689.711C2084.42 693.93 2081.26 698.148 2077.04 702.367C2072.82 706.586 2067.08 710.336 2059.81 713.617C2052.78 716.898 2043.29 718.773 2031.34 719.242C2018.91 719.711 2009.42 717.602 2002.86 712.914C1996.53 708.227 1991.84 702.836 1988.8 696.742C1985.98 690.414 1984.34 684.203 1983.88 678.109C1983.41 672.016 1983.05 667.914 1982.82 665.805C1982.59 663.695 1982.59 658.422 1982.82 649.984C1983.05 641.547 1983.41 632.289 1983.88 622.211C1984.34 611.898 1984.81 602.055 1985.28 592.68C1985.75 583.07 1985.98 576.039 1985.98 571.586C1985.98 569.242 1986.1 566.781 1986.34 564.203C1986.34 562.094 1986.34 559.867 1986.34 557.523C1986.57 554.945 1986.69 552.484 1986.69 550.141L1935.71 549.789L1933.6 529.75L1984.93 531.156C1984.46 528.578 1983.88 526.234 1983.17 524.125C1982.7 521.781 1982.23 519.906 1981.77 518.5C1981.06 516.859 1980.36 515.453 1979.66 514.281C1978.72 513.109 1977.66 511.82 1976.49 510.414C1975.32 509.242 1973.8 507.719 1971.92 505.844C1970.05 503.969 1967.82 501.859 1965.24 499.516ZM2118.52 578.617C2119.7 577.211 2120.4 574.633 2120.63 570.883C2121.1 566.898 2122.04 562.445 2123.45 557.523C2125.09 552.602 2127.78 547.445 2131.53 542.055C2135.28 536.664 2141.38 531.625 2149.81 526.938C2158.02 522.25 2165.98 519.438 2173.72 518.5C2181.45 517.562 2188.84 517.914 2195.87 519.555C2202.9 521.195 2209.46 523.773 2215.55 527.289C2221.88 530.805 2227.62 534.672 2232.78 538.891C2236.3 541.703 2239.11 545.805 2241.22 551.195C2243.33 556.352 2244.97 562.211 2246.14 568.773C2247.31 575.336 2248.13 582.25 2248.6 589.516C2249.3 596.547 2249.77 603.461 2250.01 610.258C2250.24 616.82 2250.36 622.914 2250.36 628.539C2250.59 633.93 2251.06 638.383 2251.77 641.898C2252.7 647.055 2254.34 651.508 2256.69 655.258C2259.03 658.773 2261.61 661.82 2264.42 664.398C2267.23 666.742 2270.05 668.617 2272.86 670.023C2275.67 671.43 2278.13 672.484 2280.24 673.188C2281.65 673.891 2282.94 674.359 2284.11 674.594C2286.45 675.531 2288.09 675.531 2289.03 674.594C2287.62 677.875 2286.34 680.688 2285.16 683.031C2283.99 685.375 2283.05 687.367 2282.35 689.008C2281.41 690.883 2280.59 692.406 2279.89 693.578C2279.19 694.984 2278.37 696.273 2277.43 697.445C2276.73 698.617 2275.79 699.906 2274.62 701.312C2273.45 702.719 2272.27 704.242 2271.1 705.883C2268.05 704.711 2265.12 703.305 2262.31 701.664C2259.73 700.023 2257.39 698.5 2255.28 697.094C2252.7 695.453 2250.36 693.812 2248.25 692.172C2246.14 690.531 2244.15 688.656 2242.27 686.547C2240.63 684.672 2238.88 682.68 2237 680.57C2235.36 678.461 2233.95 676.117 2232.78 673.539C2231.38 676.586 2227.98 680.922 2222.59 686.547C2217.43 692.172 2210.63 697.328 2202.2 702.016C2193.76 706.469 2183.91 709.633 2172.66 711.508C2161.65 713.383 2149.46 712.094 2136.1 707.641C2130.24 705.766 2124.73 703.07 2119.58 699.555C2114.42 695.805 2109.97 691.352 2106.22 686.195C2102.7 681.039 2100.12 675.18 2098.48 668.617C2097.08 661.82 2097.2 654.32 2098.84 646.117C2100.48 637.914 2103.41 631 2107.62 625.375C2111.84 619.75 2116.88 615.18 2122.74 611.664C2128.6 608.148 2135.16 605.453 2142.43 603.578C2149.7 601.703 2157.2 600.414 2164.93 599.711C2171.02 599.477 2177.12 599.828 2183.21 600.766C2188.37 601.703 2193.76 603.461 2199.38 606.039C2205.01 608.383 2209.81 612.016 2213.8 616.938C2213.56 604.516 2213.09 594.672 2212.39 587.406C2211.92 579.906 2211.45 574.164 2210.98 570.18C2210.05 565.492 2209.23 562.211 2208.52 560.336C2207.35 558.695 2206.06 556.82 2204.66 554.711C2203.48 552.602 2201.96 550.727 2200.09 549.086C2198.21 547.211 2195.87 545.688 2193.05 544.516C2190.24 543.344 2186.96 542.875 2183.21 543.109C2179.23 543.344 2176.06 544.398 2173.72 546.273C2171.38 548.148 2169.5 550.375 2168.09 552.953C2166.92 555.297 2166.22 557.875 2165.98 560.688C2165.75 563.5 2165.87 565.961 2166.34 568.07C2166.8 569.477 2167.51 571 2168.45 572.641C2169.38 574.047 2170.67 575.57 2172.31 577.211C2173.95 578.852 2176.18 580.258 2178.99 581.43C2173.6 582.133 2168.8 582.719 2164.58 583.188C2160.36 583.422 2156.73 583.773 2153.68 584.242C2150.16 584.711 2147.12 585.062 2144.54 585.297C2141.96 585.531 2138.91 586 2135.4 586.703C2132.35 587.172 2128.6 587.758 2124.15 588.461C2119.7 589.164 2114.54 590.102 2108.68 591.273C2110.09 589.633 2111.38 588.109 2112.55 586.703C2113.72 585.062 2114.77 583.656 2115.71 582.484C2116.65 581.078 2117.59 579.789 2118.52 578.617ZM2171.26 620.453C2167.04 620.688 2162.82 621.742 2158.6 623.617C2154.38 625.258 2150.63 627.719 2147.35 631C2144.07 634.047 2141.26 637.68 2138.91 641.898C2136.8 645.883 2135.75 650.336 2135.75 655.258C2135.75 660.18 2136.92 664.516 2139.27 668.266C2141.84 671.781 2145.12 674.711 2149.11 677.055C2153.33 679.398 2157.78 680.805 2162.47 681.273C2167.39 681.742 2172.2 681.273 2176.88 679.867C2181.34 678.227 2185.55 675.648 2189.54 672.133C2193.52 668.383 2196.92 664.398 2199.73 660.18C2202.55 655.727 2204.54 651.391 2205.71 647.172C2206.88 642.719 2207 639.086 2206.06 636.273C2204.19 630.18 2199.97 625.961 2193.41 623.617C2186.84 621.039 2179.46 619.984 2171.26 620.453ZM2440.55 520.258C2438.45 525.414 2436.57 530.102 2434.93 534.32C2433.52 538.539 2432.23 542.289 2431.06 545.57C2429.89 549.32 2428.84 552.602 2427.9 555.414C2426.96 558.695 2425.91 562.445 2424.73 566.664C2423.56 570.414 2422.04 575.102 2420.16 580.727C2418.52 586.117 2416.53 592.562 2414.19 600.062C2412.31 588.812 2408.91 579.906 2403.99 573.344C2399.07 566.547 2394.03 561.273 2388.88 557.523C2382.78 553.305 2376.22 550.258 2369.19 548.383C2356.53 546.273 2347.39 546.508 2341.77 549.086C2336.14 551.664 2332.39 554.945 2330.52 558.93C2329.58 560.57 2328.52 562.68 2327.35 565.258C2326.41 567.602 2325.59 570.062 2324.89 572.641C2324.42 575.219 2324.3 577.797 2324.54 580.375C2324.77 582.953 2325.83 585.062 2327.7 586.703C2328.88 587.875 2331.92 589.516 2336.84 591.625C2341.77 593.5 2347.62 595.727 2354.42 598.305C2361.45 600.648 2368.84 603.227 2376.57 606.039C2384.54 608.852 2392.04 611.664 2399.07 614.477C2406.1 617.289 2412.2 620.102 2417.35 622.914C2422.51 625.727 2425.91 628.305 2427.55 630.648C2428.95 632.992 2430.48 636.156 2432.12 640.141C2433.99 643.891 2435.28 648.109 2435.98 652.797C2436.92 657.25 2437.16 661.938 2436.69 666.859C2436.45 671.547 2435.16 676.234 2432.82 680.922C2430.48 685.609 2426.73 689.945 2421.57 693.93C2416.65 697.914 2409.97 701.195 2401.53 703.773C2391.69 706.82 2382.2 707.641 2373.05 706.234C2363.91 704.828 2355.48 702.719 2347.74 699.906C2340.24 697.094 2333.68 694.398 2328.05 691.82C2322.43 689.008 2318.45 687.836 2316.1 688.305C2313.52 688.773 2310.59 690.062 2307.31 692.172C2304.03 694.281 2300.87 696.508 2297.82 698.852C2295.01 700.961 2292.55 702.953 2290.44 704.828C2288.33 706.469 2287.27 707.055 2287.27 706.586C2287.27 706.117 2287.62 704.711 2288.33 702.367C2289.27 700.023 2290.2 697.211 2291.14 693.93C2292.31 690.414 2293.37 686.664 2294.3 682.68C2295.48 678.461 2296.3 674.477 2296.77 670.727C2297.23 667.68 2297.82 663.93 2298.52 659.477C2298.99 655.492 2299.58 650.688 2300.28 645.062C2301.22 639.203 2302.27 632.172 2303.45 623.969C2304.62 630.062 2306.26 635.336 2308.37 639.789C2310.71 644.242 2312.94 648.109 2315.05 651.391C2317.62 655.141 2320.09 658.305 2322.43 660.883C2325.95 664.164 2330.05 667.211 2334.73 670.023C2339.66 672.836 2344.58 675.297 2349.5 677.406C2354.42 679.281 2359.11 680.453 2363.56 680.922C2368.02 681.391 2371.77 680.922 2374.81 679.516C2377.86 678.109 2380.44 675.531 2382.55 671.781C2384.89 668.031 2386.53 663.93 2387.47 659.477C2388.41 655.023 2388.76 650.805 2388.52 646.82C2388.29 642.602 2387.23 639.203 2385.36 636.625C2383.95 634.984 2380.67 632.875 2375.52 630.297C2370.59 627.719 2364.62 624.906 2357.59 621.859C2350.79 618.812 2343.52 615.648 2335.79 612.367C2328.29 609.086 2321.14 605.805 2314.34 602.523C2307.78 599.008 2302.27 595.727 2297.82 592.68C2293.6 589.398 2291.26 586.469 2290.79 583.891C2290.32 580.141 2289.97 576.039 2289.73 571.586C2289.5 566.898 2289.73 562.328 2290.44 557.875C2291.38 553.188 2293.02 548.734 2295.36 544.516C2297.94 540.297 2301.69 536.781 2306.61 533.969C2309.89 532.094 2314.23 530.688 2319.62 529.75C2325.01 528.812 2330.98 528.344 2337.55 528.344C2344.11 528.109 2350.91 528.344 2357.94 529.047C2364.97 529.516 2371.65 530.219 2377.98 531.156C2384.54 531.859 2390.4 532.797 2395.55 533.969C2400.95 535.141 2405.05 536.195 2407.86 537.133C2411.14 538.305 2414.66 538.422 2418.41 537.484C2421.69 536.781 2425.2 535.258 2428.95 532.914C2432.7 530.57 2436.57 526.352 2440.55 520.258ZM2453.21 563.852L2517.9 564.555C2514.15 578.852 2511.34 591.039 2509.46 601.117C2507.82 611.195 2506.77 619.633 2506.3 626.43C2505.36 634.164 2505.12 640.727 2505.59 646.117C2506.3 651.039 2507.47 656.312 2509.11 661.938C2510.52 666.625 2512.62 672.016 2515.44 678.109C2518.25 684.203 2522 690.297 2526.69 696.391C2523.88 695.453 2520.83 694.75 2517.55 694.281C2514.27 693.812 2511.22 693.461 2508.41 693.227C2505.12 692.992 2501.84 692.992 2498.56 693.227C2495.28 693.461 2491.65 693.812 2487.66 694.281C2484.38 694.75 2480.4 695.336 2475.71 696.039C2471.02 696.742 2466.1 697.68 2460.95 698.852C2464.46 688.305 2467.16 679.164 2469.03 671.43C2471.14 663.695 2472.66 657.25 2473.6 652.094C2474.54 646 2475.12 641.078 2475.36 637.328C2475.36 632.641 2475.36 627.367 2475.36 621.508C2475.36 615.414 2475.36 609.555 2475.36 603.93C2475.36 598.305 2475.24 593.383 2475.01 589.164C2474.77 584.711 2474.3 581.898 2473.6 580.727L2470.09 577.211C2468.68 576.039 2466.57 574.398 2463.76 572.289C2461.18 569.945 2457.66 567.133 2453.21 563.852ZM2478.17 509.711C2483.09 507.133 2488.02 506.43 2492.94 507.602C2498.09 508.773 2502.08 511 2504.89 514.281C2507.7 517.562 2508.64 521.43 2507.7 525.883C2507 530.336 2503.25 534.672 2496.45 538.891C2489.66 542.875 2483.68 544.281 2478.52 543.109C2473.37 541.938 2469.73 539.477 2467.62 535.727C2465.52 531.977 2465.16 527.641 2466.57 522.719C2467.98 517.562 2471.84 513.227 2478.17 509.711ZM2539.34 563.852L2604.03 564.555C2600.28 578.852 2597.47 591.039 2595.59 601.117C2593.95 611.195 2592.9 619.633 2592.43 626.43C2591.49 634.164 2591.26 640.727 2591.73 646.117C2592.43 651.039 2593.6 656.312 2595.24 661.938C2596.65 666.625 2598.76 672.016 2601.57 678.109C2604.38 684.203 2608.13 690.297 2612.82 696.391C2610.01 695.453 2606.96 694.75 2603.68 694.281C2600.4 693.812 2597.35 693.461 2594.54 693.227C2591.26 692.992 2587.98 692.992 2584.7 693.227C2581.41 693.461 2577.78 693.812 2573.8 694.281C2570.52 694.75 2566.53 695.336 2561.84 696.039C2557.16 696.742 2552.23 697.68 2547.08 698.852C2550.59 688.305 2553.29 679.164 2555.16 671.43C2557.27 663.695 2558.8 657.25 2559.73 652.094C2560.67 646 2561.26 641.078 2561.49 637.328C2561.49 632.641 2561.49 627.367 2561.49 621.508C2561.49 615.414 2561.49 609.555 2561.49 603.93C2561.49 598.305 2561.38 593.383 2561.14 589.164C2560.91 584.711 2560.44 581.898 2559.73 580.727L2556.22 577.211C2554.81 576.039 2552.7 574.398 2549.89 572.289C2547.31 569.945 2543.8 567.133 2539.34 563.852ZM2564.3 509.711C2569.23 507.133 2574.15 506.43 2579.07 507.602C2584.23 508.773 2588.21 511 2591.02 514.281C2593.84 517.562 2594.77 521.43 2593.84 525.883C2593.13 530.336 2589.38 534.672 2582.59 538.891C2575.79 542.875 2569.81 544.281 2564.66 543.109C2559.5 541.938 2555.87 539.477 2553.76 535.727C2551.65 531.977 2551.3 527.641 2552.7 522.719C2554.11 517.562 2557.98 513.227 2564.3 509.711ZM2651.84 578.617C2653.02 577.211 2653.72 574.633 2653.95 570.883C2654.42 566.898 2655.36 562.445 2656.77 557.523C2658.41 552.602 2661.1 547.445 2664.85 542.055C2668.6 536.664 2674.7 531.625 2683.13 526.938C2691.34 522.25 2699.3 519.438 2707.04 518.5C2714.77 517.562 2722.16 517.914 2729.19 519.555C2736.22 521.195 2742.78 523.773 2748.88 527.289C2755.2 530.805 2760.95 534.672 2766.1 538.891C2769.62 541.703 2772.43 545.805 2774.54 551.195C2776.65 556.352 2778.29 562.211 2779.46 568.773C2780.63 575.336 2781.45 582.25 2781.92 589.516C2782.62 596.547 2783.09 603.461 2783.33 610.258C2783.56 616.82 2783.68 622.914 2783.68 628.539C2783.91 633.93 2784.38 638.383 2785.09 641.898C2786.02 647.055 2787.66 651.508 2790.01 655.258C2792.35 658.773 2794.93 661.82 2797.74 664.398C2800.55 666.742 2803.37 668.617 2806.18 670.023C2808.99 671.43 2811.45 672.484 2813.56 673.188C2814.97 673.891 2816.26 674.359 2817.43 674.594C2819.77 675.531 2821.41 675.531 2822.35 674.594C2820.95 677.875 2819.66 680.688 2818.48 683.031C2817.31 685.375 2816.38 687.367 2815.67 689.008C2814.73 690.883 2813.91 692.406 2813.21 693.578C2812.51 694.984 2811.69 696.273 2810.75 697.445C2810.05 698.617 2809.11 699.906 2807.94 701.312C2806.77 702.719 2805.59 704.242 2804.42 705.883C2801.38 704.711 2798.45 703.305 2795.63 701.664C2793.05 700.023 2790.71 698.5 2788.6 697.094C2786.02 695.453 2783.68 693.812 2781.57 692.172C2779.46 690.531 2777.47 688.656 2775.59 686.547C2773.95 684.672 2772.2 682.68 2770.32 680.57C2768.68 678.461 2767.27 676.117 2766.1 673.539C2764.7 676.586 2761.3 680.922 2755.91 686.547C2750.75 692.172 2743.95 697.328 2735.52 702.016C2727.08 706.469 2717.23 709.633 2705.98 711.508C2694.97 713.383 2682.78 712.094 2669.42 707.641C2663.56 705.766 2658.05 703.07 2652.9 699.555C2647.74 695.805 2643.29 691.352 2639.54 686.195C2636.02 681.039 2633.45 675.18 2631.8 668.617C2630.4 661.82 2630.52 654.32 2632.16 646.117C2633.8 637.914 2636.73 631 2640.95 625.375C2645.16 619.75 2650.2 615.18 2656.06 611.664C2661.92 608.148 2668.48 605.453 2675.75 603.578C2683.02 601.703 2690.52 600.414 2698.25 599.711C2704.34 599.477 2710.44 599.828 2716.53 600.766C2721.69 601.703 2727.08 603.461 2732.7 606.039C2738.33 608.383 2743.13 612.016 2747.12 616.938C2746.88 604.516 2746.41 594.672 2745.71 587.406C2745.24 579.906 2744.77 574.164 2744.3 570.18C2743.37 565.492 2742.55 562.211 2741.84 560.336C2740.67 558.695 2739.38 556.82 2737.98 554.711C2736.8 552.602 2735.28 550.727 2733.41 549.086C2731.53 547.211 2729.19 545.688 2726.38 544.516C2723.56 543.344 2720.28 542.875 2716.53 543.109C2712.55 543.344 2709.38 544.398 2707.04 546.273C2704.7 548.148 2702.82 550.375 2701.41 552.953C2700.24 555.297 2699.54 557.875 2699.3 560.688C2699.07 563.5 2699.19 565.961 2699.66 568.07C2700.12 569.477 2700.83 571 2701.77 572.641C2702.7 574.047 2703.99 575.57 2705.63 577.211C2707.27 578.852 2709.5 580.258 2712.31 581.43C2706.92 582.133 2702.12 582.719 2697.9 583.188C2693.68 583.422 2690.05 583.773 2687 584.242C2683.48 584.711 2680.44 585.062 2677.86 585.297C2675.28 585.531 2672.23 586 2668.72 586.703C2665.67 587.172 2661.92 587.758 2657.47 588.461C2653.02 589.164 2647.86 590.102 2642 591.273C2643.41 589.633 2644.7 588.109 2645.87 586.703C2647.04 585.062 2648.09 583.656 2649.03 582.484C2649.97 581.078 2650.91 579.789 2651.84 578.617ZM2704.58 620.453C2700.36 620.688 2696.14 621.742 2691.92 623.617C2687.7 625.258 2683.95 627.719 2680.67 631C2677.39 634.047 2674.58 637.68 2672.23 641.898C2670.12 645.883 2669.07 650.336 2669.07 655.258C2669.07 660.18 2670.24 664.516 2672.59 668.266C2675.16 671.781 2678.45 674.711 2682.43 677.055C2686.65 679.398 2691.1 680.805 2695.79 681.273C2700.71 681.742 2705.52 681.273 2710.2 679.867C2714.66 678.227 2718.88 675.648 2722.86 672.133C2726.84 668.383 2730.24 664.398 2733.05 660.18C2735.87 655.727 2737.86 651.391 2739.03 647.172C2740.2 642.719 2740.32 639.086 2739.38 636.273C2737.51 630.18 2733.29 625.961 2726.73 623.617C2720.16 621.039 2712.78 619.984 2704.58 620.453ZM2916.22 469.281C2925.12 471.391 2933.09 473.031 2940.12 474.203C2947.39 475.141 2953.48 475.844 2958.41 476.312C2964.27 477.016 2969.42 477.25 2973.88 477.016C2979.5 476.781 2986.53 475.961 2994.97 474.555C3003.41 473.148 3012.31 471.742 3021.69 470.336C3031.06 468.93 3040.32 467.758 3049.46 466.82C3058.6 465.883 3066.57 465.766 3073.37 466.469C3080.16 467.172 3087.31 468.812 3094.81 471.391C3102.31 473.734 3109.34 477.016 3115.91 481.234C3122.47 485.219 3128.09 490.141 3132.78 496C3137.7 501.859 3140.75 508.656 3141.92 516.391C3143.09 523.891 3142.39 531.977 3139.81 540.648C3137.23 549.086 3133.13 557.406 3127.51 565.609C3121.88 573.578 3114.85 580.961 3106.41 587.758C3097.98 594.555 3088.6 600.062 3078.29 604.281C3070.09 607.328 3061.18 609.672 3051.57 611.312C3043.37 612.719 3033.76 613.656 3022.74 614.125C3011.96 614.359 3000.48 613.188 2988.29 610.609C2986.65 617.406 2985.71 623.734 2985.48 629.594C2985.48 635.219 2985.71 640.258 2986.18 644.711C2986.88 649.867 2987.82 654.555 2988.99 658.773C2990.4 662.992 2992.16 667.914 2994.27 673.539C2996.14 678.227 2998.25 683.969 3000.59 690.766C3003.17 697.328 3006.22 704.711 3009.73 712.914C3005.52 712.914 3001.41 713.031 2997.43 713.266C2993.45 713.266 2989.81 713.383 2986.53 713.617C2982.78 713.852 2979.27 714.086 2975.98 714.32C2972.23 714.555 2968.02 715.023 2963.33 715.727C2959.34 716.195 2954.3 716.898 2948.21 717.836C2942.35 718.773 2935.67 719.945 2928.17 721.352C2933.09 714.32 2936.96 707.875 2939.77 702.016C2942.82 695.922 2945.05 690.648 2946.45 686.195C2948.09 681.039 2949.15 676.352 2949.62 672.133C2949.85 668.617 2949.85 662.406 2949.62 653.5C2949.62 644.594 2949.5 634.281 2949.27 622.562C2949.03 610.844 2948.68 598.539 2948.21 585.648C2947.74 572.758 2947.16 560.688 2946.45 549.438C2945.75 537.953 2944.93 528.109 2943.99 519.906C2943.29 511.703 2942.59 506.312 2941.88 503.734C2940.95 500.688 2939.3 497.406 2936.96 493.891C2935.09 490.844 2932.39 487.328 2928.88 483.344C2925.59 479.125 2921.38 474.438 2916.22 469.281ZM2988.99 538.539C2988.76 540.883 2988.64 543.344 2988.64 545.922C2988.64 550.844 2988.99 557.172 2989.7 564.906C2991.34 568.891 2993.33 572.172 2995.67 574.75C2998.25 577.328 3000.95 579.32 3003.76 580.727C3006.8 582.133 3009.85 583.07 3012.9 583.539C3015.95 584.008 3018.99 584.242 3022.04 584.242C3029.07 584.008 3036.45 582.367 3044.19 579.32C3054.5 574.867 3061.77 568.539 3065.98 560.336C3070.2 552.133 3072.43 543.695 3072.66 535.023C3072.9 526.352 3071.38 518.383 3068.09 511.117C3065.05 503.852 3061.3 498.93 3056.84 496.352C3053.09 494.711 3048.29 494.008 3042.43 494.242C3037.27 494.477 3030.83 495.766 3023.09 498.109C3015.36 500.453 3005.87 504.672 2994.62 510.766C2993.45 514.984 2992.51 518.734 2991.8 522.016C2991.1 525.297 2990.52 528.227 2990.05 530.805C2989.58 533.617 2989.23 536.195 2988.99 538.539ZM3212.94 563.5C3219.03 563.5 3225.36 564.672 3231.92 567.016C3238.48 569.125 3244.81 571.938 3250.91 575.453C3257 578.734 3262.51 582.367 3267.43 586.352C3272.59 590.102 3276.8 593.734 3280.09 597.25C3285.95 603.578 3289.93 612.133 3292.04 622.914C3294.38 633.461 3294.85 644.359 3293.45 655.609C3292.04 666.625 3288.76 677.055 3283.6 686.898C3278.45 696.742 3271.3 704.008 3262.16 708.695C3255.59 711.977 3249.15 714.555 3242.82 716.43C3236.49 718.305 3230.4 719.711 3224.54 720.648C3218.68 721.586 3213.17 722.055 3208.02 722.055C3202.86 722.055 3198.41 721.938 3194.66 721.703C3187.62 721.234 3180.24 718.773 3172.51 714.32C3165.01 709.867 3157.86 704.359 3151.06 697.797C3144.5 691.234 3138.88 684.086 3134.19 676.352C3129.5 668.383 3126.69 660.883 3125.75 653.852C3124.34 644.242 3124.11 634.164 3125.05 623.617C3125.98 613.07 3129.38 603.344 3135.24 594.438C3141.34 585.531 3150.48 578.148 3162.66 572.289C3175.09 566.43 3191.84 563.5 3212.94 563.5ZM3201.34 699.906C3203.91 700.375 3207.43 699.789 3211.88 698.148C3216.34 696.273 3220.67 693.344 3224.89 689.359C3229.34 685.375 3233.21 680.336 3236.49 674.242C3240.01 667.914 3242.12 660.297 3242.82 651.391C3243.52 642.719 3243.52 634.75 3242.82 627.484C3242.35 620.219 3241.3 613.891 3239.66 608.5C3238.02 602.875 3236.14 598.305 3234.03 594.789C3231.92 591.273 3229.7 588.812 3227.35 587.406C3223.37 585.297 3218.56 583.656 3212.94 582.484C3207.31 581.078 3202.51 581.312 3198.52 583.188C3196.65 584.125 3194.3 586.117 3191.49 589.164C3188.68 592.211 3185.87 596.078 3183.05 600.766C3180.24 605.219 3177.66 610.375 3175.32 616.234C3173.21 622.094 3171.69 628.188 3170.75 634.516C3169.81 640.844 3169.58 647.641 3170.05 654.906C3170.75 662.172 3172.27 669.086 3174.62 675.648C3176.96 681.977 3180.24 687.484 3184.46 692.172C3188.91 696.625 3194.54 699.203 3201.34 699.906ZM3318.41 730.844C3320.75 727.328 3322.62 724.047 3324.03 721C3325.44 717.953 3326.61 715.375 3327.55 713.266C3328.48 710.688 3329.19 708.344 3329.66 706.234C3329.89 704.828 3330.01 700.727 3330.01 693.93C3330.01 687.133 3329.77 678.578 3329.3 668.266C3329.07 657.953 3328.72 646.352 3328.25 633.461C3328.02 620.57 3327.55 607.445 3326.84 594.086C3326.38 580.727 3325.79 567.719 3325.09 555.062C3324.62 542.406 3324.15 531.039 3323.68 520.961C3323.21 510.648 3322.74 502.211 3322.27 495.648C3321.8 489.086 3321.45 485.336 3321.22 484.398C3320.75 482.992 3319.93 481.586 3318.76 480.18C3316.41 477.367 3312.43 474.672 3306.8 472.094C3318.76 469.047 3327.9 466.586 3334.23 464.711C3337.98 463.773 3341.26 462.836 3344.07 461.898C3346.65 460.961 3349.23 460.023 3351.8 459.086C3353.91 458.148 3356.26 457.094 3358.84 455.922C3361.41 454.516 3363.76 452.992 3365.87 451.352C3364.7 458.148 3363.76 464.711 3363.05 471.039C3362.35 477.367 3361.77 483.227 3361.3 488.617C3360.83 494.711 3360.59 500.57 3360.59 506.195C3359.42 517.68 3358.72 530.219 3358.48 543.812C3358.48 557.172 3358.6 570.766 3358.84 584.594C3359.07 598.422 3359.54 611.898 3360.24 625.023C3360.95 638.148 3361.65 650.102 3362.35 660.883C3363.29 671.43 3364.11 680.453 3364.81 687.953C3365.75 695.219 3366.45 699.906 3366.92 702.016C3367.86 705.531 3368.8 708.93 3369.73 712.211C3370.67 715.023 3371.73 717.953 3372.9 721C3374.07 724.281 3375.48 726.859 3377.12 728.734H3343.02C3339.97 728.734 3337.04 728.852 3334.23 729.086C3331.65 729.32 3328.95 729.555 3326.14 729.789C3323.33 730.023 3320.75 730.375 3318.41 730.844ZM3483.99 563.5C3490.09 563.5 3496.41 564.672 3502.98 567.016C3509.54 569.125 3515.87 571.938 3521.96 575.453C3528.05 578.734 3533.56 582.367 3538.48 586.352C3543.64 590.102 3547.86 593.734 3551.14 597.25C3557 603.578 3560.98 612.133 3563.09 622.914C3565.44 633.461 3565.91 644.359 3564.5 655.609C3563.09 666.625 3559.81 677.055 3554.66 686.898C3549.5 696.742 3542.35 704.008 3533.21 708.695C3526.65 711.977 3520.2 714.555 3513.88 716.43C3507.55 718.305 3501.45 719.711 3495.59 720.648C3489.73 721.586 3484.23 722.055 3479.07 722.055C3473.91 722.055 3469.46 721.938 3465.71 721.703C3458.68 721.234 3451.3 718.773 3443.56 714.32C3436.06 709.867 3428.91 704.359 3422.12 697.797C3415.55 691.234 3409.93 684.086 3405.24 676.352C3400.55 668.383 3397.74 660.883 3396.8 653.852C3395.4 644.242 3395.16 634.164 3396.1 623.617C3397.04 613.07 3400.44 603.344 3406.3 594.438C3412.39 585.531 3421.53 578.148 3433.72 572.289C3446.14 566.43 3462.9 563.5 3483.99 563.5ZM3472.39 699.906C3474.97 700.375 3478.48 699.789 3482.94 698.148C3487.39 696.273 3491.73 693.344 3495.95 689.359C3500.4 685.375 3504.27 680.336 3507.55 674.242C3511.06 667.914 3513.17 660.297 3513.88 651.391C3514.58 642.719 3514.58 634.75 3513.88 627.484C3513.41 620.219 3512.35 613.891 3510.71 608.5C3509.07 602.875 3507.2 598.305 3505.09 594.789C3502.98 591.273 3500.75 588.812 3498.41 587.406C3494.42 585.297 3489.62 583.656 3483.99 582.484C3478.37 581.078 3473.56 581.312 3469.58 583.188C3467.7 584.125 3465.36 586.117 3462.55 589.164C3459.73 592.211 3456.92 596.078 3454.11 600.766C3451.3 605.219 3448.72 610.375 3446.38 616.234C3444.27 622.094 3442.74 628.188 3441.8 634.516C3440.87 640.844 3440.63 647.641 3441.1 654.906C3441.8 662.172 3443.33 669.086 3445.67 675.648C3448.02 681.977 3451.3 687.484 3455.52 692.172C3459.97 696.625 3465.59 699.203 3472.39 699.906ZM3577.86 517.445C3588.64 518.383 3598.13 519.086 3606.34 519.555C3614.77 519.789 3621.8 520.141 3627.43 520.609C3633.99 521.078 3639.73 521.43 3644.66 521.664C3649.81 521.898 3656.38 521.898 3664.34 521.664C3671.14 521.664 3679.81 521.547 3690.36 521.312C3701.14 520.844 3714.27 520.141 3729.73 519.203L3726.92 568.07C3720.12 574.867 3714.03 581.195 3708.64 587.055C3703.48 592.914 3698.91 597.953 3694.93 602.172C3690.48 607.094 3686.49 611.547 3682.98 615.531C3679.46 619.75 3675.48 624.789 3671.02 630.648C3667.04 635.805 3662.23 642.133 3656.61 649.633C3650.98 656.898 3644.54 665.453 3637.27 675.297C3650.16 674.594 3660.71 673.891 3668.91 673.188C3677.12 672.25 3683.56 671.43 3688.25 670.727C3693.88 669.789 3697.98 669.086 3700.55 668.617C3702.9 667.68 3705.59 665.688 3708.64 662.641C3711.22 660.062 3714.38 656.195 3718.13 651.039C3721.88 645.883 3726.1 638.852 3730.79 629.945C3730.79 637.211 3730.79 643.422 3730.79 648.578C3731.02 653.5 3731.14 657.602 3731.14 660.883V670.375V678.461C3731.14 681.039 3731.14 684.203 3731.14 687.953C3731.38 691.703 3731.61 695.922 3731.84 700.609C3722.7 699.438 3714.38 698.617 3706.88 698.148C3699.38 697.445 3692.94 696.977 3687.55 696.742C3681.22 696.508 3675.48 696.508 3670.32 696.742C3665.16 697.211 3658.72 697.68 3650.98 698.148C3644.42 698.617 3636.34 699.086 3626.73 699.555C3617.12 700.023 3605.75 700.609 3592.62 701.312L3584.89 664.047C3589.11 662.172 3594.15 658.539 3600.01 653.148C3605.87 647.758 3611.49 642.25 3616.88 636.625C3622.98 630.062 3629.42 622.914 3636.22 615.18C3642.78 607.445 3649.23 599.711 3655.55 591.977C3660.95 585.414 3666.57 578.617 3672.43 571.586C3678.52 564.555 3683.8 558.344 3688.25 552.953C3675.59 553.422 3665.16 554.359 3656.96 555.766C3648.76 556.938 3642.31 558.109 3637.62 559.281C3632 560.688 3627.78 562.328 3624.97 564.203C3622.39 566.312 3619.23 569.477 3615.48 573.695C3612.2 577.211 3608.21 582.016 3603.52 588.109C3598.84 593.969 3593.45 601.586 3587.35 610.961C3587.35 603.227 3587.23 596.312 3587 590.219C3586.77 583.891 3586.53 578.617 3586.3 574.398C3585.83 569.477 3585.48 565.141 3585.24 561.391C3584.77 557.641 3584.19 553.539 3583.48 549.086C3583.02 545.102 3582.2 540.531 3581.02 535.375C3580.09 529.984 3579.03 524.008 3577.86 517.445ZM3838.37 563.5C3844.46 563.5 3850.79 564.672 3857.35 567.016C3863.91 569.125 3870.24 571.938 3876.34 575.453C3882.43 578.734 3887.94 582.367 3892.86 586.352C3898.02 590.102 3902.23 593.734 3905.52 597.25C3911.38 603.578 3915.36 612.133 3917.47 622.914C3919.81 633.461 3920.28 644.359 3918.88 655.609C3917.47 666.625 3914.19 677.055 3909.03 686.898C3903.88 696.742 3896.73 704.008 3887.59 708.695C3881.02 711.977 3874.58 714.555 3868.25 716.43C3861.92 718.305 3855.83 719.711 3849.97 720.648C3844.11 721.586 3838.6 722.055 3833.45 722.055C3828.29 722.055 3823.84 721.938 3820.09 721.703C3813.05 721.234 3805.67 718.773 3797.94 714.32C3790.44 709.867 3783.29 704.359 3776.49 697.797C3769.93 691.234 3764.3 684.086 3759.62 676.352C3754.93 668.383 3752.12 660.883 3751.18 653.852C3749.77 644.242 3749.54 634.164 3750.48 623.617C3751.41 613.07 3754.81 603.344 3760.67 594.438C3766.77 585.531 3775.91 578.148 3788.09 572.289C3800.52 566.43 3817.27 563.5 3838.37 563.5ZM3826.77 699.906C3829.34 700.375 3832.86 699.789 3837.31 698.148C3841.77 696.273 3846.1 693.344 3850.32 689.359C3854.77 685.375 3858.64 680.336 3861.92 674.242C3865.44 667.914 3867.55 660.297 3868.25 651.391C3868.95 642.719 3868.95 634.75 3868.25 627.484C3867.78 620.219 3866.73 613.891 3865.09 608.5C3863.45 602.875 3861.57 598.305 3859.46 594.789C3857.35 591.273 3855.12 588.812 3852.78 587.406C3848.8 585.297 3843.99 583.656 3838.37 582.484C3832.74 581.078 3827.94 581.312 3823.95 583.188C3822.08 584.125 3819.73 586.117 3816.92 589.164C3814.11 592.211 3811.3 596.078 3808.48 600.766C3805.67 605.219 3803.09 610.375 3800.75 616.234C3798.64 622.094 3797.12 628.188 3796.18 634.516C3795.24 640.844 3795.01 647.641 3795.48 654.906C3796.18 662.172 3797.7 669.086 3800.05 675.648C3802.39 681.977 3805.67 687.484 3809.89 692.172C3814.34 696.625 3819.97 699.203 3826.77 699.906ZM3901.65 527.289C3905.63 527.992 3909.73 528.578 3913.95 529.047C3917.94 529.281 3921.57 529.516 3924.85 529.75C3928.6 529.984 3932.23 530.102 3935.75 530.102C3939.27 530.102 3943.25 529.984 3947.7 529.75C3951.45 529.516 3955.91 529.164 3961.06 528.695C3966.45 528.227 3972.31 527.523 3978.64 526.586C3974.89 528.695 3971.96 530.922 3969.85 533.266C3967.74 535.609 3966.1 537.719 3964.93 539.594C3963.52 541.938 3962.59 544.047 3962.12 545.922C3961.65 547.797 3961.77 551.664 3962.47 557.523C3963.17 563.383 3964.11 570.18 3965.28 577.914C3966.69 585.648 3968.21 593.734 3969.85 602.172C3971.49 610.609 3973.13 618.344 3974.77 625.375C3976.65 632.406 3978.29 638.266 3979.7 642.953C3981.34 647.641 3982.62 649.867 3983.56 649.633C3984.5 649.633 3985.91 647.289 3987.78 642.602C3989.89 637.914 3992.23 632.172 3994.81 625.375C3997.39 618.344 4000.09 610.727 4002.9 602.523C4005.71 594.086 4008.17 586.234 4010.28 578.969C4012.39 571.703 4014.03 565.609 4015.2 560.688C4016.61 555.531 4017.2 552.484 4016.96 551.547C4016.26 550.609 4015.44 549.32 4014.5 547.68C4012.86 545.102 4009.23 540.648 4003.6 534.32C4010.4 534.789 4016.26 535.258 4021.18 535.727C4026.1 535.961 4030.09 536.312 4033.13 536.781C4036.65 537.25 4039.46 537.602 4041.57 537.836C4043.68 538.07 4046.73 538.07 4050.71 537.836C4053.99 537.836 4058.33 537.719 4063.72 537.484C4069.34 537.016 4076.26 536.312 4084.46 535.375C4078.37 538.891 4073.33 542.055 4069.34 544.867C4065.59 547.445 4062.66 549.672 4060.55 551.547C4057.98 553.891 4056.1 555.883 4054.93 557.523C4053.29 560.57 4050.36 567.836 4046.14 579.32C4044.27 584.242 4041.92 590.336 4039.11 597.602C4036.53 604.867 4033.37 613.656 4029.62 623.969C4026.1 634.047 4021.88 645.883 4016.96 659.477C4012.04 673.07 4006.53 688.656 4000.44 706.234L3966.34 709.75C3961.88 694.984 3958.25 682.68 3955.44 672.836C3952.86 662.758 3950.75 654.672 3949.11 648.578C3947.23 641.547 3945.83 636.039 3944.89 632.055C3943.72 627.602 3942.31 621.156 3940.67 612.719C3939.03 604.047 3937.39 595.258 3935.75 586.352C3934.11 577.445 3932.47 569.477 3930.83 562.445C3929.19 555.18 3927.9 550.727 3926.96 549.086C3926.02 547.914 3924.38 546.273 3922.04 544.164C3920.16 542.289 3917.59 540.062 3914.3 537.484C3911.02 534.672 3906.8 531.273 3901.65 527.289ZM4092.9 578.617C4094.07 577.211 4094.77 574.633 4095.01 570.883C4095.48 566.898 4096.41 562.445 4097.82 557.523C4099.46 552.602 4102.16 547.445 4105.91 542.055C4109.66 536.664 4115.75 531.625 4124.19 526.938C4132.39 522.25 4140.36 519.438 4148.09 518.5C4155.83 517.562 4163.21 517.914 4170.24 519.555C4177.27 521.195 4183.84 523.773 4189.93 527.289C4196.26 530.805 4202 534.672 4207.16 538.891C4210.67 541.703 4213.48 545.805 4215.59 551.195C4217.7 556.352 4219.34 562.211 4220.52 568.773C4221.69 575.336 4222.51 582.25 4222.98 589.516C4223.68 596.547 4224.15 603.461 4224.38 610.258C4224.62 616.82 4224.73 622.914 4224.73 628.539C4224.97 633.93 4225.44 638.383 4226.14 641.898C4227.08 647.055 4228.72 651.508 4231.06 655.258C4233.41 658.773 4235.98 661.82 4238.8 664.398C4241.61 666.742 4244.42 668.617 4247.23 670.023C4250.05 671.43 4252.51 672.484 4254.62 673.188C4256.02 673.891 4257.31 674.359 4258.48 674.594C4260.83 675.531 4262.47 675.531 4263.41 674.594C4262 677.875 4260.71 680.688 4259.54 683.031C4258.37 685.375 4257.43 687.367 4256.73 689.008C4255.79 690.883 4254.97 692.406 4254.27 693.578C4253.56 694.984 4252.74 696.273 4251.8 697.445C4251.1 698.617 4250.16 699.906 4248.99 701.312C4247.82 702.719 4246.65 704.242 4245.48 705.883C4242.43 704.711 4239.5 703.305 4236.69 701.664C4234.11 700.023 4231.77 698.5 4229.66 697.094C4227.08 695.453 4224.73 693.812 4222.62 692.172C4220.52 690.531 4218.52 688.656 4216.65 686.547C4215.01 684.672 4213.25 682.68 4211.38 680.57C4209.73 678.461 4208.33 676.117 4207.16 673.539C4205.75 676.586 4202.35 680.922 4196.96 686.547C4191.8 692.172 4185.01 697.328 4176.57 702.016C4168.13 706.469 4158.29 709.633 4147.04 711.508C4136.02 713.383 4123.84 712.094 4110.48 707.641C4104.62 705.766 4099.11 703.07 4093.95 699.555C4088.8 695.805 4084.34 691.352 4080.59 686.195C4077.08 681.039 4074.5 675.18 4072.86 668.617C4071.45 661.82 4071.57 654.32 4073.21 646.117C4074.85 637.914 4077.78 631 4082 625.375C4086.22 619.75 4091.26 615.18 4097.12 611.664C4102.98 608.148 4109.54 605.453 4116.8 603.578C4124.07 601.703 4131.57 600.414 4139.3 599.711C4145.4 599.477 4151.49 599.828 4157.59 600.766C4162.74 601.703 4168.13 603.461 4173.76 606.039C4179.38 608.383 4184.19 612.016 4188.17 616.938C4187.94 604.516 4187.47 594.672 4186.77 587.406C4186.3 579.906 4185.83 574.164 4185.36 570.18C4184.42 565.492 4183.6 562.211 4182.9 560.336C4181.73 558.695 4180.44 556.82 4179.03 554.711C4177.86 552.602 4176.34 550.727 4174.46 549.086C4172.59 547.211 4170.24 545.688 4167.43 544.516C4164.62 543.344 4161.34 542.875 4157.59 543.109C4153.6 543.344 4150.44 544.398 4148.09 546.273C4145.75 548.148 4143.88 550.375 4142.47 552.953C4141.3 555.297 4140.59 557.875 4140.36 560.688C4140.12 563.5 4140.24 565.961 4140.71 568.07C4141.18 569.477 4141.88 571 4142.82 572.641C4143.76 574.047 4145.05 575.57 4146.69 577.211C4148.33 578.852 4150.55 580.258 4153.37 581.43C4147.98 582.133 4143.17 582.719 4138.95 583.188C4134.73 583.422 4131.1 583.773 4128.05 584.242C4124.54 584.711 4121.49 585.062 4118.91 585.297C4116.34 585.531 4113.29 586 4109.77 586.703C4106.73 587.172 4102.98 587.758 4098.52 588.461C4094.07 589.164 4088.91 590.102 4083.05 591.273C4084.46 589.633 4085.75 588.109 4086.92 586.703C4088.09 585.062 4089.15 583.656 4090.09 582.484C4091.02 581.078 4091.96 579.789 4092.9 578.617ZM4145.63 620.453C4141.41 620.688 4137.2 621.742 4132.98 623.617C4128.76 625.258 4125.01 627.719 4121.73 631C4118.45 634.047 4115.63 637.68 4113.29 641.898C4111.18 645.883 4110.12 650.336 4110.12 655.258C4110.12 660.18 4111.3 664.516 4113.64 668.266C4116.22 671.781 4119.5 674.711 4123.48 677.055C4127.7 679.398 4132.16 680.805 4136.84 681.273C4141.77 681.742 4146.57 681.273 4151.26 679.867C4155.71 678.227 4159.93 675.648 4163.91 672.133C4167.9 668.383 4171.3 664.398 4174.11 660.18C4176.92 655.727 4178.91 651.391 4180.09 647.172C4181.26 642.719 4181.38 639.086 4180.44 636.273C4178.56 630.18 4174.34 625.961 4167.78 623.617C4161.22 621.039 4153.84 619.984 4145.63 620.453Z" fill="#433313"/>
</svg>
